<?xml version="1.0" encoding="UTF-8"?><svg id="Layer_1" xmlns="http://www.w3.org/2000/svg" viewBox="0 0 512 512"><defs><style>.cls-1{fill:#fff;}</style></defs><path class="cls-1" d="M391.64,306.01l-24.66,6.85-23.98-13.7,23.98-4.8c3.43-.69,6.17-4.11,5.48-8.22-.69-3.43-4.11-6.17-8.22-5.48l-39.74,7.54-33.57-19.18c1.37-4.11,2.05-8.22,2.05-13.02,0-4.11-.69-8.91-2.05-13.02l33.57-19.18,39.74,7.54c3.43,.69,7.54-1.37,8.22-5.48,.69-3.43-1.37-7.54-5.48-8.22l-23.98-4.8,23.98-13.7,24.66,6.85c3.43,.69,7.54-1.37,8.22-4.8,.69-3.43-1.37-7.54-4.8-8.22l-11.65-2.74,8.22-4.8c3.43-2.05,4.11-6.17,2.74-9.59-2.05-3.43-6.17-4.11-9.59-2.74l-8.22,4.8,2.74-11.65c.69-3.43-1.37-7.54-4.8-8.22-3.43-.69-7.54,1.37-8.22,4.8l-6.85,24.66-23.98,13.7,8.22-23.29c1.37-3.43-.69-7.54-4.11-8.91-3.43-1.37-7.54,.69-8.91,4.11l-13.02,38.36-33.57,19.18c-5.48-6.85-13.7-10.96-21.92-13.02v-39.05l26.03-30.14c2.74-2.74,2.05-6.85-.69-9.59s-6.85-2.05-9.59,.69l-15.07,19.18v-27.4l17.81-17.81c2.74-2.74,2.74-6.85,0-9.59-2.74-2.74-6.85-2.74-9.59,0l-8.22,8.22v-9.59c0-4.11-2.74-6.85-6.85-6.85s-6.85,2.74-6.85,6.85v9.59l-8.22-8.22c-2.74-2.74-6.85-2.74-9.59,0-2.74,2.74-2.74,6.85,0,9.59l17.81,17.81v27.4l-15.76-18.5c-2.74-2.74-6.85-3.43-9.59-.69-2.74,2.74-3.43,6.85-.69,9.59l26.72,30.14v39.05c-8.91,1.37-16.44,6.17-21.92,13.02l-33.57-19.18-13.7-38.36c-1.37-3.43-5.48-5.48-8.91-4.11-3.43,1.37-5.48,4.8-4.11,8.91l8.22,23.29-23.98-13.7-6.85-24.66c-.69-3.43-4.8-6.17-8.22-4.8-4.11,.69-6.16,4.11-4.79,8.22l2.74,11.65-8.22-4.8c-3.43-2.05-7.54-.69-9.59,2.74-2.05,3.43-.69,7.54,2.74,9.59l8.22,4.8-11.65,2.74c-3.43,.69-6.17,4.8-4.8,8.22,.69,3.43,4.8,5.48,8.22,4.8l24.66-6.85,23.98,13.7-23.98,4.8c-3.43,.69-6.17,4.11-5.48,8.22,.69,3.43,4.11,6.17,8.22,5.48l39.74-7.54,33.57,19.18c-1.37,4.11-2.05,8.22-2.05,13.02,0,4.11,.69,8.91,2.05,13.02l-33.57,19.18-39.74-7.54c-3.43-.69-7.54,1.37-8.22,5.48-.69,3.43,1.37,7.54,5.48,8.22l23.98,4.8-23.98,13.7-24.66-6.85c-3.43-.69-7.54,1.37-8.22,4.8-.69,3.43,1.37,7.54,4.8,8.22l11.65,2.74-8.22,4.8c-3.43,2.05-4.11,6.17-2.74,9.59,2.05,3.43,6.17,4.11,9.59,2.74l8.22-4.8-2.74,10.28c-.69,3.43,1.37,7.54,4.8,8.22,3.43,.69,7.54-1.37,8.22-4.8l6.85-24.66,23.98-13.7-8.22,23.29c-1.37,3.43,.69,7.54,4.11,8.91,3.43,1.37,7.54-.69,8.91-4.11l13.02-37.68,33.57-19.18c5.48,6.85,13.7,10.96,21.92,13.02v39.05l-26.72,30.14c-2.74,2.74-2.05,6.85,.69,9.59,2.74,2.74,7.54,2.05,9.59-.69l15.76-18.5v27.4l-17.81,17.81c-2.74,2.74-2.74,6.85,0,9.59,2.74,2.74,6.85,2.74,9.59,0l8.9-8.91v9.59c0,4.11,2.74,6.85,6.85,6.85s6.85-2.74,6.85-6.85v-9.59l8.22,8.22c2.74,2.74,6.85,2.74,9.59,0,2.74-2.74,2.74-6.85,0-9.59l-17.81-17.81v-27.4l15.76,18.5c2.74,2.74,6.85,3.43,9.59,.69,2.74-2.74,3.43-6.85,.69-9.59l-26.03-30.83v-39.05c8.91-1.37,16.44-6.17,21.92-13.02l33.57,19.18,13.02,39.05c1.37,3.43,5.48,5.48,8.91,4.11,3.43-1.37,5.48-4.8,4.11-8.91l-8.22-23.29,23.98,13.7,6.85,24.66c.69,3.43,4.8,5.48,8.22,4.8,3.43-.69,6.17-4.8,4.8-8.22l-2.74-11.65,8.22,4.8c3.43,2.05,7.54,.69,9.59-2.74,2.05-3.43,.69-7.54-2.74-9.59l-8.22-4.8,11.65-2.74c3.43-.69,6.17-4.8,4.8-8.22-1.37-3.43-4.8-5.48-8.91-4.11h0Zm-135.65-26.03c-8.91,0-16.44-4.8-21.24-12.33-2.05-3.43-3.43-7.54-3.43-12.33,0-4.11,1.37-8.22,3.43-12.33,4.11-7.54,12.33-12.33,21.24-12.33s16.44,4.8,21.24,12.33c2.05,3.43,3.43,7.54,3.43,12.33,0,4.11-1.37,8.22-3.43,12.33-4.11,8.22-12.33,12.33-21.24,12.33Z"/><path class="cls-1" d="M179.27,156.66c13.7,0,25.35-10.96,25.35-25.35s-10.96-25.35-25.35-25.35-25.35,10.96-25.35,25.35c0,13.7,11.65,25.35,25.35,25.35Zm0-36.31c6.17,0,11.65,4.8,11.65,11.65,0,6.17-4.8,11.65-11.65,11.65-6.17,0-11.65-4.8-11.65-11.65s5.48-11.65,11.65-11.65Z"/><path class="cls-1" d="M131.31,273.13c3.43-5.48,4.11-12.33,2.74-19.18-5.48-21.24-34.94-25.35-45.9-6.17-6.85,11.65-2.74,27.4,8.91,34.25,12.33,6.85,27.4,2.74,34.26-8.91h0Zm-11.65-6.85c-2.74,5.48-10.28,6.85-15.76,4.11-5.48-3.43-7.54-10.28-4.11-15.76,4.8-8.91,17.81-6.85,20.55,2.74,1.37,2.74,.69,6.16-.68,8.91h0Z"/><path class="cls-1" d="M174.47,362.87c-12.33,6.85-15.76,21.92-8.91,34.25,6.85,11.65,21.92,16.44,34.25,8.91,11.65-6.85,15.76-21.92,8.91-34.25-6.85-10.96-22.61-15.76-34.25-8.91Zm17.81,31.51c-5.48,2.74-12.33,1.37-15.76-4.11-3.43-5.48-1.37-12.33,4.11-15.76,5.48-3.43,12.33-1.37,15.76,4.11,3.43,6.17,1.37,13.02-4.11,15.76Z"/><path class="cls-1" d="M332.73,355.34c-13.7,0-25.35,10.96-25.35,25.35s10.96,25.35,25.35,25.35,25.35-10.96,25.35-25.35c0-14.39-11.65-25.35-25.35-25.35Zm0,36.31c-6.17,0-11.65-4.8-11.65-11.65s4.8-11.65,11.65-11.65c6.17,0,11.65,4.8,11.65,11.65s-5.48,11.65-11.65,11.65Z"/><path class="cls-1" d="M414.94,229.97c-12.33-6.85-27.4-2.74-34.25,8.91-3.43,5.48-4.11,12.33-2.74,19.18,5.48,21.24,34.94,25.35,45.9,6.17,6.85-12.33,2.74-27.41-8.91-34.26h0Zm-2.74,27.41c-4.8,8.22-17.81,7.54-20.55-2.74-.69-2.74-.69-6.17,1.37-8.91,2.74-5.48,9.59-7.54,15.76-4.11,4.8,3.43,6.16,10.28,3.42,15.76h0Z"/><path class="cls-1" d="M349.17,133.37c6.17-21.24-17.13-39.05-36.31-28.09-11.65,6.85-15.76,21.92-8.91,34.25,10.96,19.18,39.73,15.76,45.22-6.17h0Zm-29.46-15.76c8.91-4.8,19.18,2.74,16.44,13.02-2.74,10.28-15.76,10.96-20.55,2.74-3.43-6.17-1.37-13.02,4.11-15.76h0Z"/></svg>