<?xml version="1.0" encoding="UTF-8"?><svg id="Layer_1" xmlns="http://www.w3.org/2000/svg" viewBox="0 0 512 512"><defs><style>.cls-1{fill:#fff;stroke-width:3px;}.cls-1,.cls-2{stroke:#fff;stroke-miterlimit:10;}.cls-2{fill:none;stroke-width:10px;}</style></defs><path class="cls-2" d="M95.63,417.23c-6.03-6.06-9.39-14.23-9.38-22.71l-.92-276.22c-.03-8.49,3.3-16.63,9.31-22.66,5.97-6.04,14.1-9.42,22.63-9.44l134.61-.41,1.1,340.45-134.7,.4c-8.48-.02-16.66-3.4-22.65-9.4Z"/><path class="cls-2" d="M258.01,426.18l-.96-340.43,136.67-.38c8.49-.03,16.57,3.34,22.62,9.3,6,5.96,9.38,14.04,9.46,22.54l.89,276.45c.01,1.83-.16,3.63-.47,5.4l-.05,.27c-1.07,6.47-4.16,12.4-8.77,17.09-6.01,6.04-14.19,9.4-22.76,9.37l-117.45,.34h-.05s-4.08,.04-4.08,.04l-15.05,.02Z"/><g><g><circle class="cls-1" cx="373.35" cy="161.13" r="7.05"/><circle class="cls-1" cx="314.91" cy="161.31" r="7.05"/></g><g><circle class="cls-1" cx="372.63" cy="225.56" r="7.05"/><circle class="cls-1" cx="314.19" cy="225.74" r="7.05"/></g><g><circle class="cls-1" cx="373.28" cy="285.69" r="7.05"/><circle class="cls-1" cx="314.84" cy="285.87" r="7.05"/></g><g><circle class="cls-1" cx="372.56" cy="350.12" r="7.05"/><circle class="cls-1" cx="314.13" cy="350.3" r="7.05"/></g></g><g><g><circle class="cls-1" cx="202.28" cy="161.66" r="7.05"/><circle class="cls-1" cx="143.84" cy="161.85" r="7.05"/></g><g><circle class="cls-1" cx="201.56" cy="226.09" r="7.05"/><circle class="cls-1" cx="143.12" cy="226.28" r="7.05"/></g><g><circle class="cls-1" cx="202.21" cy="286.23" r="7.05"/><circle class="cls-1" cx="143.77" cy="286.41" r="7.05"/></g><g><circle class="cls-1" cx="201.49" cy="350.66" r="7.05"/><circle class="cls-1" cx="143.05" cy="350.84" r="7.05"/></g></g></svg>