<?xml version="1.0" encoding="UTF-8"?><svg id="Layer_1" xmlns="http://www.w3.org/2000/svg" viewBox="0 0 512 512"><defs><style>.cls-1{fill:#fff;}.cls-1,.cls-2{stroke:#fff;stroke-miterlimit:10;stroke-width:10px;}.cls-2{fill:none;}</style></defs><path class="cls-2" d="M361.6,379.03c4.43,1.2,8.83,2.58,13.31,3.55,2.76,.59,5.71,.97,8.38-.57,3.01-1.73,6.13-1.64,9.19-.41,4.71,1.89,9.31,4.07,14.02,5.96,8.7,3.49,12.22,1.16,12.33-8.23,.18-15.15-5.21-28.45-14.82-39.81-23.94-28.3-55.08-41.47-91.75-42.47-3.44-2.19-6.88-4.38-10.31-6.56,1.31-.47,2.61-.94,3.92-1.41,2.04-.27,4.1-.43,6.12-.81,16.1-3.08,28.93-15.16,31.38-29.47,1.36-7.97-1.55-13.52-9.06-16.11-7.38-2.55-11.6-7.89-14.66-14.66-1.07-2.37-.63-3.35,1.88-4,5.37-1.38,10.68-3,16.02-4.53,23.86-10.47,35.47-35.5,27.95-60.27-4.81-15.84-16.3-24.33-32.81-24.58-7.42-.11-14.49,1.66-21.57,3.39-3.88,.95-6.76,.45-9.67-2.82-6.86-7.72-15.85-11.31-26.1-12.09-10.5-.8-20.92,.96-31.37,.89-9.06-.06-17.19,2.61-24.77,7.28-5.95,3.66-11.76,7.55-17.72,11.18-5.77,3.52-11.94,5.63-18.85,5.9-7.12,.27-14.26,.81-21.24,2.57-10.96,2.77-18.97,8.82-22.12,20.05-3.67,13.06-1.75,25.15,6.94,35.87,6.32,7.8,14.36,13.37,23.21,17.9,.31,6.34,.48,12.7,.96,19.03,.93,12.48,2.79,24.68,12.05,34.26,2.37,4.45,6.25,6.92,10.89,8.43,4.93,1.6,10,.9,15.02,1.01-1.21,3.77-3.94,6.26-7.47,7.51-9.58,3.37-18.55,8.35-28.49,10.72-12.04,2.88-24.2,5.34-36.14,8.57-21.7,5.87-36.28,19.08-40.99,41.74-1.79,8.6-1.02,17.44-2.02,26.11-.39,3.4,.5,4.48,3.95,4.4,11.01-.28,21.76-2.6,32.6-4.11,57.42-8.01,114.98-12.4,172.95-7.49,8.06,8.12,17.84,9.27,28.57,7.39,10.02-1.75,19.77-6.28,30.3-3.27Z"/><path class="cls-1" d="M169.44,224.75c-8.85-4.53-16.89-10.1-23.21-17.9-8.69-10.72-10.61-22.81-6.94-35.87,3.16-11.23,11.16-17.28,22.12-20.05,6.98-1.76,14.12-2.3,21.24-2.57,6.91-.26,13.08-2.38,18.85-5.9,5.96-3.63,11.77-7.52,17.72-11.18,7.58-4.66,15.71-7.33,24.77-7.28,10.46,.07,20.87-1.69,31.37-.89,10.25,.78,19.25,4.37,26.1,12.09,2.9,3.27,5.78,3.77,9.67,2.82,7.08-1.73,14.15-3.5,21.57-3.39,16.51,.25,28,8.74,32.81,24.58,7.52,24.77-4.09,49.8-27.95,60.27-5.95-6.49-12.73-12.09-19.19-18.04-1.98-4.63-5.23-8.36-8.98-11.52-22.22-18.68-47.95-23.46-75.87-18.3-10.93,2.02-20.86,6.51-28.22,15.39-5.75,2.91-9.65,7.61-12.69,13.13-2.22,4.02-4.29,8.13-6.61,12.09-3.76,6.45-9.04,10.99-16.56,12.49Z"/><path class="cls-1" d="M302.73,374.91c-57.97-4.91-115.53-.52-172.95,7.49-10.84,1.51-21.59,3.83-32.6,4.11-3.45,.09-4.34-.99-3.95-4.4,1-8.67,.23-17.51,2.02-26.11,4.71-22.66,19.29-35.87,40.99-41.74,11.95-3.23,24.1-5.69,36.14-8.57,9.94-2.37,18.92-7.35,28.49-10.72,3.53-1.25,6.25-3.74,7.47-7.51,.56-6.64,5.34-7.76,10.7-8.31,4.1-.42,8.17-.48,12.27,.04,9.64,1.22,18.66,4.51,27.54,8.26-12.25,11.74-13.44,17.83-6.69,33.82,2.03,4.82,4.54,9.54,5.83,14.56,2.29,8.87,7.84,14.26,16.07,17.39,5.04,1.91,10.14,3.67,15.1,5.78,7.11,3.02,12.23,7.89,13.57,15.91Z"/><path class="cls-2" d="M258.85,287.46c-8.88-3.75-17.89-7.04-27.54-8.26-4.1-.52-8.17-.46-12.27-.04-5.36,.55-10.13,1.67-10.7,8.31-5.02-.11-10.09,.59-15.02-1.01-4.65-1.51-8.53-3.98-10.89-8.43,7.55-7.68,16.16-14.26,23.25-22.39,4.32-4.95,7.49-4.85,11.25,.53,1.03,1.48,1.54,4.18,3.7,3.81,2.15-.37,2.29-3.16,3.3-4.89,.9-1.54,.3-2.7-1.09-3.61-1.54-1.02-2.36-2.54-2.79-4.28-3.64-14.62-3.75-28.52,7.27-40.64,4.1-4.51,3.46-9.89,.86-15.14-2.33-4.71-6.07-6.8-11.21-6.19-3.91,.46-7.79,1.19-11.68,1.81,7.36-8.89,17.3-13.37,28.22-15.39,27.92-5.16,53.64-.39,75.87,18.3,3.76,3.16,7.01,6.88,8.98,11.52-3-.28-5.99-.77-8.99-.8-8.56-.08-12,4-10.33,12.36,.62,3.09,1.64,6.14,2.8,9.08,1.58,4.04,2.5,8.18,2.95,12.47,.87,8.22,1.32,16.46,1.02,24.73-.07,1.91,.11,3.6,1.77,5.14,4.75,4.44,5.06,7.09,2.24,13.06-1.75,3.71-4.22,7.18-3.94,11.58-1.31,.47-2.61,.94-3.91,1.41-1.64-.57-3.39-.94-4.9-1.75-5.48-2.9-11.1-4.27-17.39-3.35-6.89,1.01-13.87,1.41-20.82,2.07Z"/><path class="cls-2" d="M258.85,287.46c6.94-.67,13.92-1.07,20.82-2.07,6.3-.92,11.92,.45,17.39,3.35,1.52,.8,3.26,1.18,4.9,1.75,3.44,2.19,6.88,4.38,10.31,6.57-4.56,4.52-4.59,6.98,.6,10.6,6.36,4.44,13.05,8.4,19.5,12.7,5.29,3.53,10.84,7.08,13.47,13.09,2.24,5.13,5.94,6.85,11,7.56,6.44,.91,13.02,.2,19.39,1.76,5.29,1.3,6.66,4.15,4.45,9.13-1.36,3.07-3.23,5.85-5.47,8.31-5.26,5.77-9.65,12.14-13.61,18.83-10.54-3.01-20.29,1.52-30.3,3.27-10.73,1.88-20.51,.73-28.57-7.39-1.33-8.02-6.46-12.89-13.57-15.91-4.96-2.11-10.06-3.87-15.1-5.78-8.24-3.13-13.79-8.52-16.07-17.39-1.3-5.02-3.8-9.74-5.83-14.56-6.75-15.99-5.56-22.08,6.69-33.82Z"/><path class="cls-1" d="M361.6,379.03c3.95-6.7,8.35-13.07,13.61-18.83,2.24-2.46,4.11-5.24,5.47-8.31,2.21-4.98,.84-7.82-4.45-9.13-6.36-1.57-12.94-.85-19.39-1.76-5.05-.71-8.76-2.44-11-7.56-2.62-6.01-8.18-9.56-13.47-13.09-6.45-4.31-13.14-8.27-19.5-12.7-5.2-3.62-5.17-6.08-.6-10.6,36.67,1,67.81,14.16,91.75,42.47,9.61,11.36,15,24.66,14.82,39.81-.11,9.39-3.63,11.72-12.33,8.23-4.71-1.89-9.31-4.07-14.02-5.96-3.06-1.22-6.18-1.31-9.19,.41-2.68,1.54-5.62,1.16-8.38,.57-4.49-.96-8.88-2.34-13.31-3.55Z"/><path class="cls-2" d="M205.3,187.03c3.89-.61,7.77-1.34,11.68-1.81,5.14-.61,8.88,1.48,11.21,6.19,2.6,5.25,3.24,10.64-.86,15.14-11.02,12.12-10.91,26.01-7.27,40.64,.43,1.74,1.25,3.27,2.79,4.28,1.39,.91,1.98,2.07,1.09,3.61-1.01,1.73-1.14,4.53-3.3,4.89-2.17,.37-2.67-2.33-3.7-3.81-3.76-5.38-6.93-5.48-11.25-.53-7.09,8.14-15.71,14.71-23.25,22.39-9.26-9.57-11.11-21.78-12.05-34.26-.47-6.33-.65-12.69-.96-19.03,7.53-1.51,12.8-6.05,16.56-12.49,2.31-3.97,4.39-8.07,6.61-12.09,3.04-5.52,6.94-10.23,12.69-13.13Z"/><path class="cls-2" d="M305.88,289.07c-.28-4.4,2.2-7.87,3.94-11.58,2.81-5.97,2.51-8.62-2.24-13.06-1.65-1.54-1.84-3.23-1.77-5.14,.31-8.27-.14-16.51-1.02-24.73-.45-4.29-1.37-8.43-2.95-12.47-1.15-2.94-2.18-5.99-2.8-9.08-1.67-8.35,1.77-12.44,10.33-12.36,3,.03,5.99,.52,8.99,.8,6.46,5.94,13.24,11.55,19.19,18.04-5.34,1.52-10.65,3.14-16.02,4.53-2.51,.65-2.96,1.62-1.88,4,3.06,6.77,7.28,12.11,14.66,14.66,7.51,2.6,10.42,8.15,9.06,16.11-2.45,14.31-15.28,26.39-31.38,29.47-2.02,.39-4.08,.55-6.12,.81Z"/></svg>