<?xml version="1.0" encoding="UTF-8"?><svg id="Layer_1" xmlns="http://www.w3.org/2000/svg" viewBox="0 0 512 512"><defs><style>.cls-1{fill:#fff;}.cls-2{fill:none;stroke:#fff;stroke-miterlimit:10;stroke-width:10px;}</style></defs><path class="cls-1" d="M344.95,86.4v.11c-.7,10.5-2.69,20.47-5.97,29.57-.05,.37-.21,.7-.37,1.02-2.75,7.7-6.41,14.81-10.83,21.21-.16,.33-.37,.65-.59,.86-4.2,5.93-8.94,11.25-14.37,15.89-1.62,1.35-3.18,2.53-4.85,3.72-.16,.16-.38,.32-.59,.48-12.87,9.1-27.89,13.89-43.94,13.89-1.19,0-2.42-.05-3.67-.11,.7,6.9,.86,14.22,.65,21.91l-8.5,.05c1.35-40.92-11.09-70.27-36.19-84.8-1.02-.59-1.72-1.51-1.99-2.59-.27-1.13-.16-2.25,.43-3.23,.75-1.29,2.16-2.09,3.67-2.09,.75,0,1.51,.21,2.16,.59,17.49,10.12,29.45,26.43,35.64,48.08,1.94-7.48,4.85-14.49,8.57-21,0-.05,.05-.05,.05-.05,.05-.54,.37-1.02,.81-1.35,5.33-8.99,12.28-16.96,20.62-23.53,.28-.48,.75-.86,1.3-.97,.11-.05,.16-.16,.27-.16,6.84-5.28,14.54-9.64,23-12.98,.37-.11,.69-.27,1.07-.43h.11c9.37-3.55,19.65-5.87,30.59-6.78h.05c.75-.11,1.51,.16,2.09,.81l.05,.05c.49,.49,.75,1.13,.75,1.83Z"/><path class="cls-2" d="M380.38,339.47l-29.18,53.79c-3.01,5.71-6.13,10.29-9.42,13.94-10.72,11.96-27.46,21.11-45.93,21.11-7.86,0-15.99-1.72-24.13-5.55-10.87-5.06-24.01-4.95-35.21,.33-22.07,10.5-48.13,4.3-66.28-15.89-4.1-4.46-7.11-9.53-9.48-13.89l-29.13-53.74c-22.56-45.76-24.02-92.35-3.83-124.65,14.96-24.02,40.71-37.75,70.54-37.75h.59c9.64,.11,18.58,2.69,25.95,7.38,9.75,6.25,18.68,9.64,27.03,10.45l8.5-.05c5.33-.59,10.39-2.42,15.19-5.44,12.71-8.02,25.36-12.17,37.47-12.28h.59c29.82,0,55.45,13.73,70.54,37.74,20.19,32.26,18.74,78.84-3.83,124.49Z"/></svg>