<?xml version="1.0" encoding="UTF-8"?><svg id="Layer_1" xmlns="http://www.w3.org/2000/svg" viewBox="0 0 512 512"><defs><style>.cls-1{fill:#fff;}</style></defs><path class="cls-1" d="M352.99,171.15h-6.77v-17.25h2.93c3.99,0,7.81-1.58,10.63-4.4,2.82-2.82,4.4-6.64,4.4-10.63v-30.94c0-3.99-1.58-7.81-4.4-10.63-2.82-2.82-6.64-4.4-10.63-4.4H162.85c-3.99,0-7.81,1.58-10.63,4.4-2.82,2.82-4.4,6.64-4.4,10.63v30.79c0,3.99,1.58,7.81,4.4,10.63,2.82,2.82,6.64,4.4,10.63,4.4h2.93v17.25h-6.77c-5.98,0-11.72,2.38-15.95,6.61-4.23,4.23-6.61,9.97-6.61,15.95v203c0,5.98,2.38,11.72,6.61,15.95,4.23,4.23,9.97,6.61,15.95,6.61h193.98c5.98,0,11.72-2.38,15.95-6.61,4.23-4.23,6.61-9.97,6.61-15.95V193.56c-.04-5.96-2.43-11.65-6.66-15.85s-9.94-6.55-15.9-6.55h0Zm-14.29-67.1h10.49c1,0,1.95,.4,2.66,1.1s1.1,1.66,1.1,2.66v30.79c0,1-.4,1.95-1.1,2.66s-1.66,1.1-2.66,1.1h-10.49v-38.31Zm-25.68,0h14.4v38.57h-14.43l.04-38.57Zm-25.68,0h14.4v38.57h-14.43l.04-38.57Zm-25.68,0h14.4v38.57h-14.43l.04-38.57Zm-25.68,0h14.36v38.57h-14.4l.04-38.57Zm-25.68,0h14.4v38.57s-14.43,0-14.43,0l.04-38.57Zm-25.75,0h14.4v38.57h-14.4v-38.57Zm-7.52,50.07h157.89v16.77H177.06v-16.77Zm-14.21-11.54c-2.08,0-3.76-1.68-3.76-3.76v-30.9c0-2.08,1.68-3.76,3.76-3.76h10.45v38.46l-10.45-.04Zm201.31,253.97c0,2.99-1.19,5.86-3.3,7.97s-4.98,3.3-7.97,3.3H159.01c-2.99,0-5.86-1.19-7.97-3.3-2.12-2.11-3.3-4.98-3.3-7.97v-28.79h216.42v28.79Zm-216.04-40.07v-121.99h215.78v121.99H148.11Zm216.04-133.26H147.85v-29.62c0-2.99,1.19-5.86,3.3-7.97,2.11-2.11,4.98-3.3,7.97-3.3h193.86c2.99,0,5.86,1.19,7.97,3.3s3.3,4.98,3.3,7.97l-.11,29.62Z"/><path class="cls-1" d="M279.27,249.27c-5.78-3.01-12.43-3.88-18.79-2.46-6.36,1.42-12.01,5.03-15.97,10.2-3.96,5.18-5.96,11.58-5.66,18.08-.09,2.62-.89,5.17-2.32,7.37-1.43,2.2-3.44,3.97-5.8,5.11l-.34,.19c-6.23,3.7-10.92,9.51-13.24,16.37s-2.1,14.33,.6,21.05c2.71,6.72,7.73,12.25,14.16,15.58,6.43,3.34,13.84,4.27,20.89,2.62,7.05-1.65,13.28-5.77,17.56-11.61,4.28-5.84,6.33-13.03,5.78-20.25v-.53c-.53-5.28,1.55-10.48,5.56-13.95,8.27-5.36,13.06-14.72,12.58-24.56-.48-9.84-6.16-18.69-14.91-23.22h-.11Zm1.8,32.14h0c-1.35,2.59-3.36,4.77-5.83,6.32l-.56,.41c-.49,.41-12.14,10.07-9.77,24.51,.3,4.52-1.02,9-3.73,12.63-2.7,3.63-6.61,6.19-11.02,7.2-4.41,1.01-9.05,.42-13.06-1.67-4.02-2.09-7.16-5.54-8.86-9.74-1.7-4.2-1.86-8.86-.43-13.16,1.42-4.3,4.33-7.95,8.2-10.3,4.25-2.14,7.81-5.42,10.3-9.47,2.49-4.05,3.8-8.71,3.8-13.46-.28-5.12,1.85-10.08,5.76-13.4s9.14-4.63,14.15-3.53c5.01,1.1,9.22,4.47,11.39,9.12,2.16,4.65,2.03,10.05-.36,14.58l.04-.04Z"/><path class="cls-1" d="M237.92,301.49c-2.66,2.69-4.33,6.2-4.75,9.96-.42,3.76,.45,7.55,2.45,10.76,.93,1.3,2.45,2.03,4.05,1.94,1.59-.09,3.03-.98,3.81-2.38s.79-3.09,.04-4.49c-.87-1.45-1.22-3.15-1.01-4.83,.22-1.68,1-3.23,2.21-4.41,1.17-1.19,1.61-2.91,1.17-4.52-.45-1.61-1.71-2.85-3.33-3.27-1.61-.42-3.33,.06-4.49,1.25h-.15Z"/></svg>