<?xml version="1.0" encoding="UTF-8"?><svg id="Layer_1" xmlns="http://www.w3.org/2000/svg" viewBox="0 0 512 512"><defs><style>.cls-1{fill:#fff;}</style></defs><path class="cls-1" d="M185.24,278.97v-46.84l-38.11-22.86-38.11,22.86v46.84l38.11,22.86,38.11-22.86Zm-65.33-40.67l27.22-16.33,27.22,16.33v34.51l-27.22,16.33-27.22-16.33v-34.51Z"/><path class="cls-1" d="M217.9,232.12v46.84l38.11,22.86,38.11-22.86v-46.84l-38.11-22.86-38.11,22.86Zm65.33,40.67l-27.22,16.33-27.22-16.33v-34.51l27.22-16.33,27.22,16.33v34.51Z"/><path class="cls-1" d="M424.77,219.8l-54.44-32.67V121.8l-21.78-13.07v-5.63c0-9-7.33-16.33-16.33-16.33H201.56c-5.71,0-10.72,2.95-13.64,7.39l-.05-.08-46.19,27.72v65.33l-54.44,32.67v71.5l54.44,32.67v65.33l59.89,35.93,54.44-32.67,54.44,32.67,59.89-35.93v-65.33l54.44-32.67v-71.5Zm-65.33-91.83v59.17l-10.89,6.53V121.43l10.89,6.53Zm-21.78,111.11c1.09-.82,2.16-1.67,3.11-2.65l24.11-14.46,27.22,16.33v34.51l-27.22,16.33-27.22-16.33v-33.73ZM196.11,103.11c0-3.01,2.44-5.44,5.44-5.44h130.66c3,0,5.44,2.44,5.44,5.44v114.33c0,9-7.33,16.33-16.33,16.33s-16.33-7.33-16.33-16.33v-59.89c0-9-7.33-16.33-16.33-16.33s-16.33,7.33-16.33,16.33v27.22c0,6-4.88,10.89-10.89,10.89s-10.89-4.88-10.89-10.89v-49c0-9-7.33-16.33-16.33-16.33s-16.33,7.33-16.33,16.33v16.33c0,6-4.88,10.89-10.89,10.89s-10.89-4.88-10.89-10.89v-49Zm108.89,182.03l-49,29.4-49-29.4v-59.17l40.71-24.43c3.76,3.09,8.5,5.01,13.73,5.01,12.01,0,21.78-9.77,21.78-21.78v-27.22c0-3.01,2.44-5.44,5.44-5.44s5.44,2.44,5.44,5.44v59.89c0,8.86,4.32,16.67,10.89,21.64v46.06Zm-98-111.25c12.01,0,21.78-9.77,21.78-21.78v-16.33c0-3.01,2.44-5.44,5.44-5.44s5.44,2.44,5.44,5.44v32.49l-38.11,22.88-27.22-16.33v-34.51l10.89-6.53v18.34c0,12.01,9.77,21.78,21.78,21.78h0Zm-54.44-45.92l32.67-19.6v12.7l-21.78,13.06v46.84l38.11,22.86,38.11-22.87v3.81c0,2.82,.58,5.49,1.56,7.96l-39.67,23.8-49-29.4v-59.17Zm-54.44,98l49-29.4,49,29.4v59.16l-49,29.4-49-29.4v-59.16Zm54.44,157.16v-59.17l49-29.4,49,29.4v59.16l-49,29.4-49-29.4Zm206.88,0l-49,29.4-49-29.4v-59.17l49-29.4,49,29.4v59.17Zm54.44-98l-49,29.4-49-29.4v-41.02c1.76,.36,3.58,.55,5.44,.55s3.69-.19,5.44-.55v34.86l38.11,22.86,38.11-22.86v-46.84l-38.11-22.86-16.51,9.9c.04-.58,.17-1.14,.17-1.73v-11.07l16.33-9.8,49,29.4v59.17Z"/><path class="cls-1" d="M163.46,330.12v46.84l38.11,22.86,38.11-22.86v-46.84l-38.11-22.86-38.11,22.86Zm65.33,40.67l-27.22,16.33-27.22-16.33v-34.51l27.22-16.33,27.22,16.33v34.51Z"/><path class="cls-1" d="M272.35,330.12v46.84l38.11,22.86,38.11-22.86v-46.84l-38.11-22.86-38.11,22.86Zm65.33,40.67l-27.22,16.33-27.22-16.33v-34.51l27.22-16.33,27.22,16.33v34.51Z"/></svg>