<?xml version="1.0" encoding="UTF-8"?><svg id="Layer_1" xmlns="http://www.w3.org/2000/svg" viewBox="0 0 512 512"><defs><style>.cls-1{fill:#fff;}</style></defs><path class="cls-1" d="M450.44,281.67c.04-.15,.14-.29,.17-.46,.03-.15-.03-.3-.02-.45,.03-.33,.01-.63-.03-.95-.04-.33-.11-.63-.22-.93-.06-.15-.04-.3-.11-.44-.06-.13-.18-.22-.26-.36-.17-.29-.36-.54-.58-.79-.2-.22-.4-.43-.64-.61-.24-.18-.49-.33-.76-.46-.31-.15-.61-.27-.93-.36-.13-.04-.25-.13-.4-.15l-137.76-22.79c-1.11-10.12-6.21-19.5-14.33-27.42l63.93-104.24c.11-.17,.12-.36,.2-.54,.13-.3,.26-.59,.33-.92,.07-.3,.09-.59,.1-.89,0-.31,0-.59-.04-.9-.05-.33-.15-.63-.27-.94-.07-.18-.07-.37-.16-.54-.05-.1-.13-.15-.19-.24-.17-.27-.39-.5-.61-.75-.22-.24-.43-.47-.69-.65-.09-.06-.13-.15-.23-.21-.17-.1-.36-.11-.52-.19-.31-.14-.61-.27-.94-.34-.3-.07-.59-.09-.9-.1-.3,0-.59-.01-.89,.04-.34,.05-.65,.16-.97,.29-.17,.06-.36,.06-.52,.15l-89.99,47.52-26.21-64.24c-.1-.22-.27-.38-.39-.58-.12-.2-.17-.43-.33-.62-.06-.07-.13-.1-.19-.16-.24-.26-.51-.45-.79-.66-.23-.16-.43-.34-.68-.46-.3-.15-.62-.21-.94-.29-.27-.06-.53-.15-.8-.17-.31-.02-.61,.04-.92,.08-.32,.04-.63,.07-.93,.18-.08,.03-.17,0-.25,.04-.23,.1-.39,.27-.59,.4-.2,.12-.42,.17-.61,.32l-44.82,36.26-53.15-29.3c-.26-.15-.54-.17-.82-.26-.27-.1-.52-.25-.82-.29-.03,0-.05,0-.08,0-.47-.06-.92,0-1.38,.09-.15,.03-.33,0-.47,.04-.37,.1-.7,.31-1.03,.5-.2,.11-.43,.17-.61,.31-.19,.15-.33,.37-.5,.55-.26,.27-.54,.53-.73,.86-.01,.03-.04,.04-.05,.06-.14,.26-.16,.55-.25,.83-.1,.27-.25,.52-.29,.82l-11.53,82.03h-45.83c-.2,0-.36,.09-.55,.11-.34,.04-.66,.09-.99,.2-.31,.11-.59,.27-.87,.43-.17,.1-.37,.13-.53,.27-.08,.06-.11,.15-.19,.22-.25,.22-.44,.48-.64,.75-.18,.24-.36,.47-.49,.73-.13,.26-.19,.54-.27,.82-.09,.33-.18,.64-.2,.97,0,.1-.06,.18-.06,.29,0,.2,.09,.38,.11,.57,.04,.33,.08,.64,.19,.96,.11,.31,.27,.59,.43,.88,.1,.17,.13,.36,.26,.52l60.29,77.69c-20.92,37.1-33.64,85.53-33.64,138.48,0,2.64,2.14,4.79,4.79,4.79s4.79-2.14,4.79-4.79c0-111.14,57.02-201.56,127.1-201.56,24.56,0,46.29,7.56,59.74,19.13,.18,.15,.31,.34,.51,.47,.04,.03,.08,.03,.12,.05,7.49,6.63,12.23,14.53,13.27,23.09-3.59,1.54-7.28,4.45-10.5,8.64-8.07,10.48-19.36,36.12-5.39,90.25l-22.85,58.16c-.96,2.46,.24,5.24,2.71,6.21,.57,.22,1.17,.33,1.75,.33,1.91,0,3.71-1.15,4.45-3.04l6.96-17.7c8.07,7.81,18.28,12.22,29.01,12.22,24.92,0,45.2-23.38,45.2-52.11,0-8.67-1.93-17.02-5.43-24.55l102.62-47.15c.15-.08,.26-.2,.4-.3,.33-.18,.63-.39,.89-.64,.18-.18,.33-.38,.48-.58,.19-.27,.37-.54,.5-.84,.12-.24,.21-.48,.28-.75h0Zm-322.5-16.66l-51.99-67.01h40.22c.62,0,1.21-.13,1.77-.36,.2-.08,.35-.22,.53-.31,.33-.19,.66-.38,.94-.64,.17-.16,.29-.36,.45-.54,.22-.27,.43-.54,.58-.86,.11-.24,.17-.48,.25-.73,.06-.23,.18-.43,.22-.66l11.14-79.27,49.88,27.5s.1,.01,.14,.04c.66,.34,1.39,.54,2.13,.55,.01,0,.03,0,.04,0,.73,0,1.44-.23,2.12-.57,.16-.08,.3-.15,.45-.26,.14-.09,.31-.13,.44-.24l42.32-34.24,25.76,63.16c.04,.09,.1,.15,.15,.24,.03,.06,.02,.13,.05,.18,.04,.07,.11,.1,.15,.16,.41,.69,.93,1.27,1.59,1.67,.07,.04,.15,.06,.22,.1,.7,.38,1.47,.62,2.27,.62h0s.02,0,.03,0c.59,0,1.2-.11,1.77-.35,.09-.03,.13-.11,.22-.15,.07-.03,.13-.01,.2-.05l79.2-41.83-54.07,88.17c-15.28-11.12-37.11-18.14-61.41-18.14-38.28,0-72.93,24.48-97.76,63.81h0Zm168.49,2.98c3.66-4.76,6.8-5.99,7.78-6.14l125.47,20.76-137.94,63.38c-11.82-49.2-.79-70.86,4.69-77.99h0Zm44.68,88.49c0,23.46-15.99,42.54-35.63,42.54-9.46,0-18.48-4.56-25.14-12.5l11.87-30.22,44.35-20.38c2.93,6.27,4.54,13.27,4.54,20.56h0Z"/><path class="cls-1" d="M211.36,252.25c-13.78,0-25,11.21-25,25s11.21,25,25,25,25-11.21,25-25c0-13.78-11.21-25-25-25Zm0,40.42c-8.51,0-15.42-6.92-15.42-15.42s6.92-15.42,15.42-15.42,15.42,6.92,15.42,15.42-6.92,15.42-15.42,15.42h0Z"/></svg>