<?xml version="1.0" encoding="UTF-8"?><svg id="Layer_1" xmlns="http://www.w3.org/2000/svg" viewBox="0 0 512 512"><defs><style>.cls-1{fill:#fff;}.cls-2{fill:none;stroke:#fff;stroke-miterlimit:10;stroke-width:10px;}</style></defs><path class="cls-2" d="M269.9,109.92c9.92,.56,19.93,.08,29.67,2.63,7.61,1.99,14.61,5.18,20.2,10.91,6.14,6.29,6.37,13.41,.2,19.73-8.72,8.94-19.82,14.06-31.37,18.09-30.11,10.51-60.98,17.6-92.78,20.65-12.58,1.21-23.8,5.93-33.2,14.72-10.46,9.77-13.59,28.92-6.91,40.73,2.62,4.63,3.82,10.03,5.99,14.94,5.07,11.51,9.1,14.39,22.47,6.41,6.8-4.06,10.86-10.98,15.89-16.83,22.66-26.38,50.7-45.09,82.77-57.89,21.19-8.46,42.98-15.09,65.74-17.75,18.58-2.17,37.26-2.03,55.86-.2,7.8,.77,14.82,4.29,21.17,8.99,10.96,8.12,11.07,18.32,.07,26.36-10.7,7.82-22.71,13.06-35.13,17.47-26.79,9.52-54.56,14.66-82.54,19.1-25.45,4.03-50.91,8.19-74.64,19.02-10.33,4.71-19.52,11.06-27.5,19.13-7.09,7.17-7.17,12.23,.07,19.49,5.24,5.26,10.95,10.04,16.31,15.19,2.61,2.51,5.02,5.26,7.29,8.09,8.94,11.16,3.89,21.48-4.65,27.93-6.43,4.86-13.28,9.16-19.94,13.71-7.64,5.23-14.18,11.5-19.37,19.27-4.66,6.99-11.38,12.24-17.22,18.15-6.87,6.95-22.59,4.65-31.39-3.35-2.59-2.36-4.91-4.95-6.56-8.06-8.35-15.7-20.1-28.7-32.48-41.21-7.9-7.98-14.18-16.95-17.8-27.68-4.61-13.69-1.13-22.78,11.46-29.84,4.3-2.41,8.76-4.27,13.54-5.55,8.86-2.38,16.19-7.77,23.75-12.68,9.24-6,9.2-5.94,1.79-14.04-7.69-8.4-15.46-16.77-21.51-26.48-13.68-21.95-11.28-43.9,6.25-63.01,12.89-14.05,28.7-23.67,45.76-31.57,30.46-14.1,62.28-22.7,95.96-24,4.26-.16,8.51-.57,12.79-.57ZM120.13,310.7c19.15,3.63,37.35,7.08,56.5,10.71-5.76-12.91-16.06-17.62-27.77-19.59-10.47-1.76-20.38-.03-28.73,8.88Z"/><path class="cls-1" d="M120.13,310.7c8.35-8.91,18.25-10.64,28.73-8.88,11.71,1.97,22.02,6.68,27.77,19.59-19.15-3.63-37.35-7.08-56.5-10.71Z"/></svg>