<?xml version="1.0" encoding="UTF-8"?><svg id="Layer_1" xmlns="http://www.w3.org/2000/svg" viewBox="0 0 512 512"><defs><style>.cls-1{fill:none;stroke:#fff;stroke-miterlimit:10;stroke-width:10px;}</style></defs><path class="cls-1" d="M400.92,350.58c-7.11,.19-11.92-3.01-14.45-9.27-2.63-6.62-4.6-13.51-6.79-20.32-1.09-3.39-17.37-62.68-17.84-64.33-12.27-42.95-24.63-85.87-36.63-128.89-3.72-13.29-11.2-22.35-24.96-24.74-20.93-3.62-42.15-4.23-63.29-3.21-14.34,.72-24.36,8.5-30.3,21.92-2.6,5.89-5.04,11.83-7.21,17.85-21.75,60.76-43.37,121.59-65.09,182.38-5.94,16.64-11.49,19.93-27.95,17.2-8.97-1.49-15.32,1.5-19.74,9.37-5.2,9.26-5.93,19.36-4.06,29.4,2.41,13.17,12.8,23.1,25.44,23.64,10.8,.5,21.72,.26,32.55-1.27,9.53-1.35,19.15-1.94,28.85-.59,15.63,2.19,31.29,4.49,47.01,5.79,6.86,.57,13.71-1.4,19.11-6.63,11.1-10.69,10.85-23.4,6.68-36.65-3.84-12.1-13.56-15.29-24.98-15.38-6.75-.03-9.24-3.42-8.93-10.03,.29-6.07,2.02-11.71,3.68-17.45,1.86-6.35,5.81-9.15,12.65-9.27,17.62-.32,35.17,1.45,52.77,1.46,21.53,.03,21.62-.34,26.68,20.18,.41,1.62,.39,3.35,.56,5.01,1.28,11.47-2.97,15.8-14.21,13.47-6.43-1.31-11.83,.35-15.72,4.6-13.83,15.21-10.88,44.9,12.1,52.28,5.44,1.76,10.97,1.37,16.48,1.1,26.86-1.48,53.73-4.47,80.41,2.14,7.2,1.78,14.86,3.02,22.07,1.8,15.92-2.76,22.94-12.1,24.36-30.03,1.6-20.43-9.13-32.13-29.26-31.53Zm-163.62-107.42c8.35-29.48,16.71-58.99,25.03-88.5,.48-.1,.93-.21,1.42-.28,2.11,9.73,4.31,19.45,6.36,29.21,4.24,20.12,8.29,40.24,12.71,60.32,1.07,4.82,.42,8.89-4.62,9.39-11.96,1.23-23.95,1.4-35.86-1.25-5.33-1.19-6.38-4.13-5.02-8.89Z"/></svg>