<?xml version="1.0" encoding="UTF-8"?>
<svg id="Layer_1" data-name="Layer 1" xmlns="http://www.w3.org/2000/svg" viewBox="0 0 512 512">
  <defs>
    <style>
      .cls-1 {
        fill: #fff;
      }
    </style>
  </defs>
  <path class="cls-1" d="m411.83,152.5c0-6.02.38-12.06-.28-18.06-.42-3.76-1.23-7.39-2.74-10.85-1.83-4.19-4.06-8.04-6.79-11.55-3.68-4.73-8.05-8.46-13.25-10.88-2.49-1.16-5.08-2.01-7.66-2.89-7.7-2.62-15.41-5.14-23.22-7.33-7.07-1.98-14.17-3.89-21.34-5.36-8.31-1.7-16.62-3.41-25.02-4.48-5.36-.68-10.7-1.5-16.05-2.09-4.91-.54-9.82-.94-14.74-1.24-5.12-.32-10.25-.55-15.37-.63-10.5-.17-20.98.09-31.46.84-4.37.32-8.74.59-13.09,1.06-5.45.57-10.9,1.28-16.33,2.07-5.25.75-10.49,1.6-15.7,2.67-7.14,1.45-14.29,2.89-21.38,4.77-9.74,2.56-19.42,5.37-28.97,8.68-3.93,1.37-8.02,2.31-11.74,4.34-9.21,5.02-15.48,13.15-19.6,23.43-1.37,3.4-2.34,7.03-2.34,10.8-.01,29.58-.02,126.08-.02,155.66h.09c0,22.53,0,45.06,0,67.59.01,6.02-.38,12.06.28,18.05.42,3.76,1.23,7.4,2.74,10.86,1.83,4.19,4.06,8.04,6.79,11.54,3.68,4.73,8.05,8.47,13.25,10.89,2.49,1.15,5.08,2.01,7.66,2.89,7.7,2.61,15.41,5.14,23.22,7.32,7.07,1.98,14.17,3.89,21.34,5.37,8.31,1.69,16.62,3.4,25.02,4.48,5.36.68,10.7,1.49,16.05,2.08,4.91.55,9.82.95,14.74,1.25,5.12.31,10.25.55,15.37.63,10.5.17,20.98-.1,31.46-.85,4.37-.31,8.74-.59,13.09-1.05,5.45-.57,10.9-1.28,16.33-2.07,5.25-.75,10.49-1.6,15.7-2.67,7.14-1.45,14.29-2.9,21.38-4.77,9.74-2.56,19.42-5.37,28.97-8.68,3.93-1.37,8.02-2.31,11.74-4.35,9.21-5.02,15.48-13.14,19.6-23.42,1.37-3.41,2.34-7.03,2.34-10.8,0-29.58.02-59.16.02-88.74h-.09c0-29.17,0-111.8,0-134.51Zm-36.57,194.61c0,2.87-.74,5.64-1.78,8.23-3.14,7.82-7.91,14.01-14.92,17.83-2.83,1.55-5.95,2.27-8.94,3.31-7.27,2.52-14.64,4.66-22.06,6.61-5.39,1.43-10.84,2.53-16.27,3.63-3.97.81-7.96,1.46-11.96,2.03-4.13.61-8.28,1.14-12.43,1.58-3.31.35-6.64.56-9.97.8-7.98.57-15.95.77-23.95.65-3.9-.06-7.8-.24-11.7-.49-3.75-.22-7.48-.53-11.22-.94-4.08-.45-8.14-1.07-12.22-1.59-6.4-.82-12.72-2.12-19.05-3.41-5.46-1.12-10.86-2.58-16.25-4.09-5.94-1.66-11.81-3.58-17.68-5.57-1.96-.67-3.93-1.32-5.83-2.2-3.96-1.85-7.28-4.69-10.09-8.29-2.07-2.67-3.77-5.6-5.17-8.79-1.14-2.63-1.76-5.4-2.08-8.26-.5-4.57-.21-9.17-.21-13.75,0-17.15,0-34.3,0-51.46h-.07c0-22.52.01-95.99.01-118.51,0-2.87.74-5.63,1.79-8.22,3.13-7.83,7.91-14.02,14.92-17.84,2.83-1.55,5.94-2.26,8.94-3.3,7.27-2.52,14.64-4.66,22.05-6.61,5.4-1.43,10.84-2.53,16.28-3.64,3.97-.81,7.96-1.46,11.95-2.03,4.14-.6,8.29-1.14,12.44-1.57,3.31-.36,6.64-.57,9.96-.81,7.98-.57,15.96-.77,23.95-.64,3.9.06,7.81.24,11.71.48,3.74.23,7.48.53,11.22.95,4.07.45,8.14,1.07,12.22,1.59,6.39.81,12.72,2.11,19.05,3.41,5.46,1.12,10.86,2.57,16.24,4.08,5.95,1.66,11.82,3.59,17.68,5.58,1.97.67,3.94,1.32,5.83,2.2,3.96,1.84,7.29,4.68,10.09,8.28,2.08,2.67,3.78,5.6,5.17,8.79,1.15,2.64,1.77,5.41,2.09,8.27.5,4.57.2,9.16.21,13.74,0,17.3,0,80.21,0,102.42h.07c0,22.52-.01,45.03-.02,67.55Z"/>
</svg>