<?xml version="1.0" encoding="UTF-8"?>
<svg id="Layer_1" data-name="Layer 1" xmlns="http://www.w3.org/2000/svg" viewBox="0 0 512 512">
  <defs>
    <style>
      .cls-1 {
        fill: #fff;
      }

      .cls-1, .cls-2 {
        stroke: #fff;
        stroke-miterlimit: 10;
        stroke-width: 10px;
      }

      .cls-2 {
        fill: none;
      }
    </style>
  </defs>
  <path class="cls-2" d="m254.46,218.32c-23.92,16.15-111.84,77.18-150.49,114.23-22.7-33.12-27.76-58.96-28.35-73.86-.29-8.15,4.37-15.66,11.76-19.09,32.33-14.96,127.73-58.84,151.13-66.79l.03.06c-14.06,5.88-15.89,25.35-2.79,33.61l18.71,11.84Z"/>
  <path class="cls-2" d="m305.65,302.43l-99.82,114.17c-4.04,4.63-10.77,5.85-16.09,2.85-11.52-6.49-33.03-22-63.47-58.2,17.9-13.71,109.28-82.94,153.63-104.71l1.11,28.43c.49,13.1,13.36,21.01,24.65,17.46Z"/>
  <path class="cls-1" d="m433.14,164.63c8.76-13.1-1.31-30.59-17.03-29.57l-41.09,2.68c-6.26.41-12.31-2.3-16.18-7.22l-25.49-32.33c-9.75-12.4-29.48-8.21-33.38,7.07l-10.16,39.9c-1.54,6.05-5.97,10.97-11.84,13.15l-38.65,14.23c-.26.09-.52.2-.79.32-14.06,5.88-15.89,25.35-2.79,33.61l18.71,11.84c-23.92,16.15-111.84,77.18-150.49,114.23,2.79,4.1,5.91,8.32,9.28,12.66,4.51,5.76,8.82,11.09,13.01,16.04,17.9-13.71,109.28-82.94,153.63-104.71l1.11,28.43c.49,13.1,13.36,21.01,24.65,17.46v-.03c2.27-.67,4.48-1.86,6.52-3.55l31.66-26.28c4.83-4.02,11.32-5.38,17.35-3.7l39.61,11.2c15.19,4.28,28.7-10.71,22.85-25.35l-15.22-38.27c-2.33-5.82-1.63-12.4,1.86-17.61l22.87-34.22Z"/>
</svg>