<?xml version="1.0" encoding="UTF-8"?>
<svg id="Layer_1" data-name="Layer 1" xmlns="http://www.w3.org/2000/svg" viewBox="0 0 512 512">
  <defs>
    <style>
      .cls-1 {
        fill: #fff;
      }
    </style>
  </defs>
  <path class="cls-1" d="m179.31,234.75l-42.98,21.24,42.98,21.24,36.8-21.24-36.8-21.24Z"/>
  <path class="cls-1" d="m199.26,311.74l-3.09,47.87,39.89-26.63v-42.48l-36.8,21.24Z"/>
  <path class="cls-1" d="m236.06,179.01l-39.89-26.63,3.09,47.87,36.8,21.24v-42.48Z"/>
  <path class="cls-1" d="m332.69,277.24l42.98-21.24-42.98-21.24-36.8,21.24,36.8,21.24Z"/>
  <path class="cls-1" d="m275.95,221.49l36.8-21.24,3.09-47.87-39.89,26.63v42.48Z"/>
  <path class="cls-1" d="m275.95,332.99l39.89,26.63-3.09-47.87-36.8-21.24v42.48Z"/>
  <path class="cls-1" d="m415.46,152.38l-33.21,19.25,2.19-33.71-19.95-1.3-2.99,46.97-12.17,6.98,2.69-41.69-19.85-1.3-3.59,54.95-62.63,36.2v-72.4l45.77-30.52-11.07-16.55-34.71,23.14v-13.96l39.09-26.13-11.07-16.55-28.02,18.65v-38.3h-19.95v38.3l-28.02-18.65-11.07,16.55,39.09,26.13v13.96l-34.71-23.14-11.07,16.55,45.77,30.52v72.4l-62.63-36.2-3.59-54.95-19.85,1.3,2.69,41.69-12.17-6.98-2.99-46.97-19.95,1.3,2.19,33.71-33.21-19.25-9.97,17.25,33.21,19.25-30.22,14.96,8.88,17.85,42.08-20.84,12.17,6.98-37.4,18.55,8.78,17.85,49.36-24.43,62.63,36.2-62.63,36.1-49.36-24.33-8.78,17.85,37.4,18.55-12.17,6.98-42.08-20.94-8.88,17.95,30.22,14.96-33.21,19.15,9.97,17.25,33.21-19.15-2.19,33.61,19.95,1.3,2.99-46.87,12.17-6.98-2.69,41.69,19.85,1.3,3.59-54.95,62.63-36.2v72.3l-45.77,30.62,11.07,16.55,34.71-23.14v13.96l-39.09,26.13,11.07,16.55,28.02-18.65v38.3h19.95v-38.3l28.02,18.65,11.07-16.55-39.09-26.13v-13.96l34.71,23.14,11.07-16.55-45.77-30.62v-72.3l62.63,36.2,3.59,54.95,19.85-1.3-2.69-41.69,12.17,6.98,2.99,46.87,19.95-1.3-2.19-33.61,33.21,19.15,9.97-17.25-33.21-19.15,30.22-14.96-8.88-17.95-42.08,20.94-12.17-6.98,37.4-18.55-8.78-17.85-49.36,24.33-62.63-36.1,62.63-36.2,49.36,24.43,8.78-17.85-37.4-18.55,12.17-6.98,42.08,20.84,8.88-17.85-30.22-14.96,33.21-19.25-9.97-17.25Z"/>
</svg>