<?xml version="1.0" encoding="UTF-8"?>
<svg id="Layer_1" data-name="Layer 1" xmlns="http://www.w3.org/2000/svg" viewBox="0 0 512 512">
  <defs>
    <style>
      .cls-1, .cls-2 {
        fill: #fff;
      }

      .cls-2 {
        stroke: #fff;
        stroke-miterlimit: 10;
      }
    </style>
  </defs>
  <path class="cls-2" d="m85.27,442.71h222.66c-3.57,6.77-10.68,11.38-18.87,11.38H104.14c-8.19,0-15.3-4.61-18.87-11.38Z"/>
  <path class="cls-1" d="m418.82,279.06c1.67-.92,3.19-2.06,4.53-3.4,3.62-3.62,5.85-8.62,5.85-14.15,0-7.56-4.19-14.14-10.38-17.55-1.97-1.08-1.97-3.84,0-4.93,1.66-.91,3.18-2.06,4.51-3.39,3.63-3.63,5.87-8.63,5.87-14.16,0-7.56-4.19-14.14-10.38-17.55-1.97-1.08-1.97-3.84,0-4.93,1.66-.91,3.18-2.06,4.52-3.39,3.61-3.63,5.86-8.63,5.85-14.16,0-7.57-4.19-14.15-10.38-17.56-1.97-1.08-1.97-3.85,0-4.93,1.67-.92,3.19-2.06,4.52-3.4,3.62-3.62,5.86-8.62,5.86-14.15,0-7.57-4.19-14.15-10.38-17.55-1.97-1.08-1.97-3.85,0-4.93,1.66-.92,3.18-2.06,4.52-3.4,3.62-3.62,5.86-8.62,5.86-14.16,0-11.04-8.96-20.01-20.02-20.01h-2.52c-1.54,0-2.79-1.25-2.79-2.79v-.13c0-11.03-8.71-20.38-19.74-20.53-5.63-.08-10.75,2.17-14.43,5.86-1.34,1.33-2.48,2.85-3.4,4.52-1.08,1.97-3.85,1.97-4.93,0-3.41-6.19-9.99-10.38-17.55-10.38-5.53,0-10.54,2.24-14.16,5.86-1.33,1.33-2.48,2.85-3.4,4.52-1.08,1.97-3.85,1.97-4.93,0-3.4-6.19-9.98-10.38-17.55-10.38-5.52,0-10.52,2.24-14.14,5.86-1.34,1.33-2.48,2.86-3.4,4.53-1.08,1.97-3.85,1.97-4.93,0-3.41-6.19-9.99-10.39-17.55-10.38-5.53,0-10.54,2.24-14.16,5.86-1.33,1.33-2.48,2.86-3.4,4.52-1.08,1.97-3.85,1.97-4.93,0-3.4-6.19-9.99-10.39-17.55-10.39-5.52,0-10.52,2.24-14.14,5.86-3.63,3.62-5.87,8.63-5.88,14.15v.65c0,1.54-1.24,2.8-2.79,2.8h-2.52c-5.53-.01-10.53,2.23-14.15,5.86-3.62,3.62-5.87,8.62-5.86,14.15,0,7.56,4.18,14.15,10.38,17.55,1.97,1.09,1.97,3.85,0,4.94-1.67.91-3.19,2.06-4.52,3.39-3.63,3.63-5.87,8.63-5.87,14.16,0,7.56,4.19,14.14,10.38,17.55,1.97,1.08,1.97,3.85,0,4.93-1.67.91-3.19,2.06-4.52,3.4-3.62,3.62-5.86,8.62-5.86,14.15,0,7.57,4.19,14.15,10.38,17.55,1.97,1.09,1.97,3.85,0,4.94-1.67.91-3.19,2.06-4.53,3.39-.88.88-1.68,1.84-2.38,2.87h126.77c11.51,0,20.84,9.33,20.84,20.84v147.93c3.63,3.76,8.73,6.09,14.36,6.09,5.53-.01,10.54-2.24,14.16-5.87,1.33-1.33,2.48-2.85,3.4-4.52,1.08-1.97,3.85-1.97,4.93,0,3.41,6.19,9.99,10.38,17.55,10.38,5.52,0,10.52-2.23,14.14-5.86,3.63-3.62,5.87-8.62,5.87-14.16v-.64c0-1.54,1.25-2.79,2.79-2.79h2.53c5.53.01,10.53-2.24,14.15-5.86,3.63-3.62,5.87-8.63,5.86-14.15,0-7.57-4.18-14.15-10.37-17.55-1.97-1.09-1.97-3.85,0-4.94,1.66-.91,3.19-2.06,4.52-3.39,3.62-3.63,5.86-8.63,5.86-14.16,0-7.56-4.19-14.15-10.38-17.56-1.97-1.08-1.97-3.85,0-4.93ZM238.18,110.78c6.79,0,12.3,5.52,12.3,12.31s-5.51,12.29-12.3,12.3c-6.79,0-12.3-5.51-12.3-12.31s5.51-12.3,12.3-12.3Zm.01,90.2c-6.79,0-12.3-5.51-12.3-12.3s5.51-12.3,12.29-12.3,12.31,5.51,12.31,12.31-5.52,12.29-12.3,12.29Zm65.58,0c-6.79,0-12.3-5.51-12.3-12.3.01-6.79,5.52-12.3,12.3-12.3s12.3,5.51,12.3,12.3c0,6.79-5.5,12.3-12.3,12.3Zm0-65.59c-6.8,0-12.31-5.51-12.31-12.3s5.51-12.3,12.3-12.3,12.3,5.51,12.31,12.3c0,6.79-5.52,12.3-12.3,12.3Zm65.59,196.77c-6.79,0-12.3-5.51-12.3-12.3s5.51-12.29,12.29-12.3c6.8,0,12.31,5.51,12.3,12.3.01,6.79-5.5,12.3-12.29,12.3Zm0-65.59c-6.79,0-12.29-5.5-12.29-12.3s5.51-12.3,12.3-12.3c6.79,0,12.29,5.51,12.29,12.3.01,6.79-5.5,12.3-12.3,12.3Zm0-65.6c-6.79,0-12.3-5.5-12.3-12.29,0-6.78,5.51-12.29,12.3-12.3,6.79,0,12.3,5.51,12.3,12.29s-5.51,12.31-12.3,12.3Zm0-65.58c-6.79,0-12.3-5.51-12.3-12.3s5.51-12.3,12.3-12.3,12.29,5.51,12.3,12.3c0,6.79-5.51,12.3-12.3,12.3Z"/>
  <path class="cls-2" d="m308.09,238.17H85.11c3.52-6.93,10.72-11.68,19.03-11.68h184.92c8.31,0,15.51,4.75,19.03,11.68Z"/>
  <rect class="cls-2" x="82.8" y="248.53" width="227.6" height="22"/>
  <rect class="cls-2" x="82.8" y="280.89" width="227.6" height="22"/>
  <rect class="cls-2" x="82.8" y="313.26" width="227.6" height="22"/>
  <rect class="cls-2" x="82.8" y="345.62" width="227.6" height="22"/>
  <rect class="cls-2" x="82.8" y="377.99" width="227.6" height="22"/>
  <rect class="cls-2" x="82.8" y="410.35" width="227.6" height="22"/>
</svg>