<?xml version="1.0" encoding="UTF-8"?>
<svg id="Layer_1" data-name="Layer 1" xmlns="http://www.w3.org/2000/svg" viewBox="0 0 512 512">
  <defs>
    <style>
      .cls-1, .cls-2 {
        fill: #fff;
      }

      .cls-2 {
        stroke: #fff;
        stroke-miterlimit: 10;
        stroke-width: 10px;
      }
    </style>
  </defs>
  <path class="cls-1" d="m344.95,86.4v.1c-.71,10.5-2.69,20.47-5.98,29.57-.05.37-.21.7-.37,1.02-2.75,7.71-6.41,14.81-10.83,21.21-.16.33-.37.65-.59.87-4.2,5.92-8.94,11.25-14.37,15.88-1.62,1.35-3.18,2.53-4.85,3.72-.16.16-.38.32-.59.48-12.87,9.1-27.89,13.89-43.94,13.89-1.19,0-2.42-.05-3.67-.1.7,6.89.86,14.22.65,21.91l-8.5.05c1.35-40.91-11.1-70.27-36.19-84.8-1.02-.59-1.72-1.51-1.99-2.59-.26-1.13-.16-2.25.43-3.23.75-1.29,2.16-2.09,3.66-2.09.76,0,1.51.21,2.16.59,17.5,10.12,29.45,26.43,35.64,48.08,1.94-7.48,4.84-14.48,8.56-21,0-.05.06-.05.06-.05.05-.54.37-1.02.8-1.35,5.33-8.99,12.28-16.96,20.62-23.53.28-.48.76-.86,1.3-.97.11-.05.16-.16.27-.16,6.84-5.28,14.53-9.64,22.99-12.98.38-.1.7-.26,1.08-.43h.1c9.38-3.55,19.66-5.87,30.59-6.78h.05c.76-.11,1.51.16,2.1.81l.05.05c.49.49.76,1.13.76,1.83Z"/>
  <path class="cls-2" d="m380.38,339.47l-29.19,53.79c-3,5.71-6.13,10.29-9.41,13.94-10.72,11.96-27.46,21.11-45.94,21.11-7.86,0-15.99-1.72-24.12-5.55-10.87-5.06-24.01-4.95-35.21.33-22.08,10.5-48.14,4.3-66.28-15.89-4.1-4.46-7.11-9.53-9.48-13.89l-29.13-53.73c-22.56-45.77-24.02-92.35-3.82-124.65,14.96-24.02,40.7-37.75,70.53-37.75h.6c9.64.11,18.57,2.69,25.95,7.38,9.75,6.25,18.68,9.64,27.03,10.44l8.5-.05c5.34-.59,10.4-2.42,15.19-5.44,12.71-8.02,25.36-12.17,37.47-12.28h.6c29.82,0,55.45,13.74,70.53,37.75,20.2,32.25,18.74,78.83-3.82,124.49Z"/>
</svg>