<?xml version="1.0" encoding="UTF-8"?>
<svg id="Layer_1" data-name="Layer 1" xmlns="http://www.w3.org/2000/svg" viewBox="0 0 512 512">
  <defs>
    <style>
      .cls-1 {
        fill: #fff;
        fill-rule: evenodd;
      }
    </style>
  </defs>
  <path class="cls-1" d="m308.1,180.19c-2.81,12.96-12.97,23.82-22.77,32.58-8.41,6.3-16.47,11.21-25.93,15.06,3.5-8.05,10.16-14.36,14.71-22.07,8.41-10.86,19.63-21.72,31.53-27.33,1.4-.36,2.46.7,2.46,1.75Z"/>
  <path class="cls-1" d="m308.1,180.19c-2.81,12.96-12.97,23.82-22.77,32.58-8.41,6.3-16.47,11.21-25.93,15.06,3.5-8.05,10.16-14.36,14.71-22.07,8.41-10.86,19.63-21.72,31.53-27.33,1.4-.36,2.46.7,2.46,1.75Z"/>
  <path class="cls-1" d="m456.03,277.35l-7.81-7.16c-3.77-3.45-3.52-8.8.53-11.9l8.42-6.43c4.05-3.1,3.84-7.86-.47-10.58l-8.97-5.65c-4.31-2.72-5.04-8.03-1.6-11.81l7.14-7.83c3.43-3.77,2.38-8.41-2.35-10.32l-9.84-3.96c-4.73-1.91-6.38-7-3.67-11.33l5.62-8.98c2.71-4.32.84-8.71-4.16-9.74l-10.38-2.14c-5-1.03-7.54-5.75-5.64-10.49l3.92-9.84c1.9-4.74-.72-8.71-5.83-8.83l-10.59-.25c-5.1-.12-8.45-4.31-7.42-9.32l2.11-10.38c1.01-5-2.28-8.44-7.32-7.65l-10.47,1.65c-5.04.79-9.08-2.74-8.97-7.84l.22-10.59c.1-5.1-3.75-7.9-8.57-6.23l-10.01,3.49c-4.82,1.68-9.42-1.07-10.22-6.11l-1.67-10.47c-.81-5.04-5.09-7.1-9.54-4.59l-9.22,5.21c-4.44,2.51-9.46.63-11.15-4.18l-3.52-10c-1.69-4.81-6.28-6.08-10.2-2.81l-8.14,6.78c-3.93,3.27-9.2,2.31-11.72-2.12l-5.24-9.21c-2.53-4.44-7.27-4.87-10.55-.95l-6.8,8.12c-3.28,3.91-8.64,3.91-11.92,0l-6.79-8.12c-3.28-3.91-8.02-3.49-10.55.95l-5.24,9.21c-2.53,4.43-7.8,5.39-11.72,2.12l-8.14-6.78c-3.92-3.27-8.51-2-10.21,2.81l-3.51,10c-1.69,4.82-6.71,6.69-11.15,4.18l-9.22-5.21c-4.44-2.51-8.74-.45-9.54,4.59l-1.67,10.47c-.81,5.04-5.4,7.79-10.23,6.11l-10-3.49c-4.82-1.68-8.67,1.12-8.56,6.23l.22,10.59c.11,5.1-3.93,8.63-8.97,7.84l-10.47-1.65c-5.04-.79-8.33,2.65-7.32,7.65l2.11,10.38c1.02,5-2.33,9.2-7.43,9.32l-10.59.25c-5.1.12-7.73,4.1-5.83,8.83l3.93,9.84c1.9,4.74-.65,9.46-5.64,10.49l-10.38,2.14c-5,1.03-6.87,5.41-4.16,9.74l5.63,8.98c2.71,4.33,1.05,9.42-3.68,11.33l-9.83,3.96c-4.73,1.9-5.8,6.55-2.36,10.32l7.14,7.83c3.44,3.77,2.72,9.09-1.6,11.81l-8.96,5.65c-4.32,2.72-4.53,7.48-.48,10.58l8.42,6.43c4.05,3.1,4.29,8.45.53,11.9l-7.81,7.16c-3.76,3.44-3.12,8.17,1.42,10.49l9.44,4.83c4.54,2.32,5.74,7.55,2.65,11.61l-6.41,8.44c-3.09,4.06-1.61,8.59,3.27,10.06l10.14,3.07c4.88,1.47,6.99,6.4,4.68,10.96l-4.8,9.44c-2.31,4.55-.05,8.74,5.02,9.32l10.53,1.2c5.07.58,8.02,5.06,6.56,9.94l-3.03,10.15c-1.46,4.89,1.51,8.62,6.6,8.28l10.57-.69c5.1-.34,8.8,3.53,8.23,8.61l-1.17,10.53c-.57,5.07,3.02,8.21,7.98,6.97l10.28-2.57c4.95-1.24,9.29,1.91,9.64,6.99l.72,10.57c.35,5.1,4.44,7.54,9.09,5.43l9.65-4.36c4.65-2.1,9.48.22,10.73,5.17l2.6,10.27c1.25,4.94,5.72,6.62,9.91,3.72l8.72-6.03c4.2-2.9,9.36-1.47,11.48,3.17l4.39,9.64c2.12,4.64,6.8,5.5,10.42,1.89l7.5-7.48c3.61-3.61,8.95-3.13,11.86,1.06l6.05,8.71c2.91,4.19,7.67,4.19,10.58,0l6.05-8.71c2.91-4.19,8.25-4.67,11.87-1.06l7.5,7.48c3.61,3.61,8.3,2.75,10.41-1.89l4.4-9.64c2.12-4.64,7.29-6.07,11.48-3.17l8.72,6.03c4.2,2.9,8.66,1.22,9.91-3.72l2.6-10.27c1.25-4.95,6.08-7.27,10.73-5.17l9.66,4.36c4.64,2.11,8.74-.33,9.09-5.43l.72-10.57c.36-5.08,4.69-8.23,9.64-6.99l10.28,2.57c4.95,1.24,8.54-1.89,7.97-6.97l-1.17-10.53c-.57-5.08,3.14-8.95,8.23-8.61l10.57.69c5.09.34,8.06-3.39,6.61-8.28l-3.03-10.15c-1.46-4.89,1.49-9.36,6.56-9.94l10.53-1.2c5.07-.58,7.32-4.77,5.02-9.32l-4.8-9.44c-2.31-4.55-.2-9.49,4.68-10.96l10.14-3.07c4.89-1.47,6.36-6,3.27-10.06l-6.41-8.44c-3.09-4.07-1.9-9.3,2.65-11.61l9.44-4.82c4.55-2.32,5.19-7.05,1.42-10.49Zm-104.49-53.72l-7.29,8.1c-6.9,6.26-13.79,11.36-20.69,18.04-11.01,6.8-23.04,12.31-35.09,17.3.7,13.31-9.46,22.42-11.57,34.34-.34,1.05.7,2.1,2.1,2.1,5.1-.95,9.47-2.32,14.5-5.01,0,0,20.64-12.08,31.03-1.34,12.29,12.69-21.62,40.36-27.57,44.96-10.92,8.43-34.09,16.05-55.81,15.35-10.16-1.06-20.67-5.26-24.87-14.71-7.71-22.78,11.91-39.59,17.87-58.51,0-1.05.35-2.1-.7-2.1-9.11,5.61-15.42,15.41-21.73,23.48-14.01,19.96-27.68,49.75-55.7,51.85-7.71,0-15.07-3.85-18.57-10.51-9.81-17.87-1.4-36.79,4.2-53.95,16.46-38.54,45.2-72.87,76.73-105.11,29.08-25.57,59.21-49.75,98.8-50.79,18.57.35,36.09,7.36,45.9,23.82,11.56,21.37,2.1,44.85-11.56,62.71Z"/>
</svg>