<?xml version="1.0" encoding="UTF-8"?>
<svg id="Layer_1" data-name="Layer 1" xmlns="http://www.w3.org/2000/svg" viewBox="0 0 512 512">
  <defs>
    <style>
      .cls-1 {
        fill: #fff;
      }
    </style>
  </defs>
  <path class="cls-1" d="m312.49,181.45c-15.34-2.9-24.2-2.13-56.49-2.13-18.85-1.07-37.77-.36-56.49,2.13-27.25,5.21-51.83,19.76-69.52,41.14-17.68,21.38-27.36,48.26-27.36,76v34.08c32.12,0,51.12,1.96,76.68-7.92,0-.85,0-.6,1.62-.6,22.15-8.84,41.14-24.12,54.52-43.86,13.38-19.74,20.53-43.04,20.54-66.89,0,23.85,7.16,47.15,20.54,66.89,13.38,19.74,32.37,35.02,54.52,43.86,1.96,0,1.62,0,1.62.6,24.79,9.63,41.66,7.92,76.68,7.92v-34.08c0-27.75-9.68-54.62-27.36-76-17.68-21.38-42.26-35.93-69.52-41.14h0Z"/>
  <path class="cls-1" d="m196.36,77.09c4.52,0,8.85,1.8,12.05,4.99,3.19,3.2,4.99,7.53,4.99,12.05v26.16c-10.99,11.21-17.11,26.31-17.04,42,0,5.54-1.45,0,25.56,0,73.02,0,76.68-.77,93.72,2.39.36-8.17-.97-16.33-3.9-23.97-2.93-7.64-7.4-14.59-13.14-20.42v-26.16c0-4.52,1.8-8.85,4.99-12.05,3.2-3.19,7.53-4.99,12.05-4.99,2.26,0,4.43-.9,6.02-2.5,1.6-1.6,2.5-3.76,2.5-6.02,0-17.72-42.6-7.07-42.6,25.56v14.31c-7.99-3.79-16.72-5.75-25.56-5.75s-17.57,1.97-25.56,5.75v-14.31c0-32.72-42.6-43.28-42.6-25.56,0,2.26.9,4.43,2.5,6.02,1.6,1.6,3.76,2.5,6.02,2.5h0Z"/>
  <path class="cls-1" d="m256,279.69c-7.51,13.59-17.34,25.76-29.05,35.95h58.19c-11.74-10.19-21.6-22.36-29.14-35.95Z"/>
  <path class="cls-1" d="m309.25,332.68c-140.66,0-91.93-2.56-126.69,9.03.68,2.73,1.36,5.45,2.13,8.01h142.62c.77-2.56,1.45-5.28,2.13-8.01-6.97-2.45-13.72-5.48-20.19-9.03Z"/>
  <path class="cls-1" d="m198.66,383.8h114.68c3.09-5.49,5.79-11.18,8.09-17.04h-130.86c2.3,5.86,5.01,11.55,8.09,17.04Z"/>
  <path class="cls-1" d="m247.48,425.55v17.89c0,3.04,1.62,5.86,4.26,7.38,2.64,1.52,5.88,1.52,8.52,0,2.64-1.52,4.26-4.34,4.26-7.38v-17.89c14.99-3.52,28.23-12.28,37.32-24.71h-91.67c9.09,12.43,22.33,21.19,37.32,24.71Z"/>
</svg>