<?xml version="1.0" encoding="UTF-8"?>
<svg id="Layer_1" data-name="Layer 1" xmlns="http://www.w3.org/2000/svg" viewBox="0 0 512 512">
  <defs>
    <style>
      .cls-1 {
        fill: #fff;
      }
    </style>
  </defs>
  <path class="cls-1" d="m415.94,300.65c-8.22-10.28-14.87-21.72-20.15-33.78l-6.25-14.28c-4.29-9.81-7.71-19.99-10.22-30.4l-.52-2.16,25.23-26.1.13-.14c2.3-2.56,3.02-6.17,1.9-9.43-1.12-3.25-3.93-5.64-7.32-6.24l-28.07-4.33c-2.24-15.93-7.33-36.65-18.92-41.92-19.48-8.86-23.6-7.62-23.6-7.62,0,0-1.75-7.01-11.34-7.32-9.59-.31-16.91,2.27-18.86,9.89-1.96,7.63-28.66,10.93-20.62,52.99,7.9,41.3,95.54,155.29-54.85,226.54-4.52,2.14-5.99,7.87-3.1,11.95,12.05,16.95,43.76,54.56,87.84,54.56,61.85,0,133.6-24.74,133.6-90.71,0-42.88-14.64-68.69-24.88-81.5Zm-63.19-106.09c-1.3-1.85-1.02-4.39.67-5.91l7.03-6.31,35.58,5.48-27.8,28.76-15.48-22.02Z"/>
  <path class="cls-1" d="m371.92,126.61c-11.27.3-20.03-4.72-27.95-12.34-7.07-6.8-12.78-15.15-21.44-20.16-5.37-3.1-20.98-3.93-26.54,2.44-6.91,7.93-14.16,16-24.82,18.61-8.1,1.98-16.37,4.21-24.94,3.15-1.82-.23-3.97-1.06-4.14-2.68-.15-1.37,2.35-1.11,3.6-1.72,8.33-4.07,13.44-10.85,17.47-19.13,5.16-10.59,3.12-22.72,8.52-33.28,8.07-15.77,29.94-14.34,38.44-3.28,1.4,1.82,3.97,4.25,5.97,3.5,3.2-1.2,2.91-4.92,2.43-7.83-1.04-6.3-3.1-12.22-7.62-17.02-1.34-1.42-1.84-3.67-1.22-5.05.74-1.67,3.31-1.34,5-1.33,9.63.05,18.49,2.87,26.85,7.66,5.32,3.05,8.76,7.96,11.87,12.74,2.61,4.01,3.43,9.26,4.74,14.04.76,2.75.97,7.41,3.17,7.39,3.48-.03,4.93-4.15,5.66-7.57,1.82-8.46,1.45-16.69-2.84-24.47-.55-1-1.39-2.04-.1-3.34,1.38-1.4,2.35-.23,3.38.25,12.89,5.92,22.21,15.88,28.57,28.08,6.68,12.81,10,26.73,5.18,41.15-3.97,11.87-11.36,19.68-29.23,20.19Z"/>
  <g>
    <path class="cls-1" d="m245.54,362.43c-.18,4.05-1.07,8.12-1.94,12.09-.44,1.98-1.65,4.5-3.99,3.89-2.5-.62-3.75-3.04-4.13-5.83-3.18-22.96-5.77-46.04-9.86-68.84-4.45-24.71-11.71-48.88-21.57-71.88-7.7-17.94-15.12-36.45-29.69-50.7-13.34-13.04-33.64-13.36-52.03-1.71-26.21,16.59-46.32,39.17-65.23,63.13-.93,1.17-1.71,3.04-3.53,2.18-1.94-.91-1.35-3.08-.93-4.56,10.1-34.29,21.25-68.28,47.01-94.54,17.74-18.04,38.38-31.45,70.13-31.24,15.62-.54,29.29,10.2,39.35,26.73,12.8,21.07,19.39,44.43,24.85,68.19,11.57,50.44,13.69,101.6,11.55,153.08Z"/>
    <path class="cls-1" d="m82.82,345.55c.21-23.61,2.41-46.84,16.14-67.07,12.43-18.31,37.68-28.48,58.37-17.58,12.72,6.7,20.78,18.5,28.32,30.88,15.85,26.02,25.45,54.28,32.72,83.53,1.27,5.1,1.23,10.55,1.5,15.85.04.79-1.52,2.23-2.48,2.37-2.08.3-3.9-.64-4.96-2.67-8.85-16.9-16.2-34.82-29.14-49.13-14.61-16.14-30.23-31.75-54.95-27.55-11.93,2.02-18.2,12.21-24.33,21.25-5.62,8.29-9.57,17.69-14.49,26.47-.94,1.68-1.27,5.17-3.91,4.36-2.44-.75-2.67-3.98-2.75-6.45-.15-4.75-.04-9.5-.04-14.25Z"/>
    <path class="cls-1" d="m231.63,383.71c-.04,1.65-.75,2.98-2.86,3.16-1.96.16-2.52-1.09-2.9-2.36-6.33-20.02-11.83-40.32-19.05-59.99-8.55-23.3-19.88-45.46-36.65-64.06-19.47-21.61-47.63-21.59-72.87-1.09-12.05,9.78-21.89,21.37-30.64,34.03-.64.95-2.46,2.1-3.18,1.79-2.5-.99-1.31-3.51-.95-5.08,5.5-23.46,11.39-46.61,24.79-67.39,16.11-24.96,41-36.93,69.42-28.93,14.76,4.15,24.96,16.09,33.44,28.77,13.89,20.76,21.67,44.04,28.02,67.93.71,2.64,1.94,5.12,2.84,7.72.3.89.36,1.85.52,2.8,3.33,16.49,6.45,32.98,8,49.77,1.01,10.97,2.28,21.89,2.06,32.92Z"/>
  </g>
</svg>