<?xml version="1.0" encoding="UTF-8"?>
<svg id="Layer_1" data-name="Layer 1" xmlns="http://www.w3.org/2000/svg" viewBox="0 0 512 512">
  <defs>
    <style>
      .cls-1 {
        fill: #fff;
      }
    </style>
  </defs>
  <path class="cls-1" d="m425.58,175.05c-6.35-4.7-13.37-8.22-21.17-8.99-18.6-1.84-37.28-1.98-55.86.19-22.75,2.66-44.55,9.29-65.74,17.75-32.07,12.81-60.11,31.52-82.77,57.89-5.02,5.86-9.09,12.78-15.89,16.83-13.37,7.98-17.39,5.1-22.46-6.41-2.17-4.91-3.37-10.31-5.99-14.94-6.68-11.8-3.54-30.96,6.91-40.73,9.41-8.78,20.62-13.51,33.21-14.71,31.8-3.05,62.68-10.14,92.78-20.65,11.55-4.03,22.65-9.15,31.37-18.09,6.17-6.32,5.94-13.45-.2-19.74-5.59-5.72-12.58-8.91-20.2-10.9-9.74-2.55-19.75-2.07-29.67-2.63-4.28,0-8.53.4-12.79.57-33.68,1.29-65.5,9.89-95.96,23.99-17.06,7.9-32.87,17.53-45.76,31.58-17.53,19.11-19.93,41.05-6.25,63,6.05,9.71,13.82,18.08,21.51,26.48,7.41,8.1,7.45,8.04-1.79,14.04-7.56,4.91-14.9,10.29-23.76,12.67-4.79,1.29-9.24,3.15-13.54,5.56-12.59,7.07-16.08,16.15-11.46,29.84,3.61,10.73,9.89,19.7,17.79,27.68,12.39,12.5,24.14,25.51,32.49,41.21,1.65,3.1,3.97,5.7,6.56,8.06,8.79,8,24.51,10.3,31.39,3.35,5.85-5.91,12.56-11.16,17.22-18.15,5.19-7.77,11.72-14.04,19.37-19.26,6.66-4.55,13.51-8.85,19.94-13.71,8.53-6.45,13.58-16.77,4.64-27.93-2.26-2.83-4.68-5.58-7.29-8.09-5.35-5.15-11.06-9.93-16.3-15.19-7.24-7.27-7.16-12.32-.07-19.49,7.98-8.07,17.17-14.41,27.5-19.13,23.74-10.83,49.2-14.99,74.65-19.02,27.97-4.44,55.75-9.58,82.53-19.1,12.42-4.41,24.44-9.65,35.14-17.47,10.99-8.04,10.88-18.24-.08-26.36ZM120.13,310.69c8.35-8.9,18.26-10.64,28.73-8.88,11.71,1.97,22.02,6.68,27.77,19.59-19.15-3.63-37.34-7.08-56.5-10.71Z"/>
</svg>