<?xml version="1.0" encoding="UTF-8"?>
<svg id="Layer_1" data-name="Layer 1" xmlns="http://www.w3.org/2000/svg" viewBox="0 0 512 512">
  <defs>
    <style>
      .cls-1 {
        fill: #fff;
      }
    </style>
  </defs>
  <g>
    <path class="cls-1" d="m456.88,330.75c-2.82,5.44-7.48,9.7-13.16,12.01l-190.24,74.39-43.98,17.12-1.3.5c-3.1,2.5-6.67,4.33-10.51,5.39-2.41.65-4.89.98-7.39.98-14.68,0-27.86-11.11-33.09-27.45l11.38-4.15c.85,2.73,2,5.35,3.45,7.81,4.45,7.57,13.44,13.58,22.48,11.12,11.16-3.03,17.37-17.44,13.87-32.17-.1-.39-.21-.77-.32-1.15l73.74-26.99,107.69-39.42,37.55-13.74,20.73-7.59c3.13-1.36,6.05-3.15,8.69-5.3l2.63,10.97c1.39,5.97.6,12.23-2.22,17.67Z"/>
    <path class="cls-1" d="m459.07,267.21l-2.78-11.16c-.63-2.53-1.69-4.92-3.09-7.08-1.41-2.16-3.17-4.08-5.23-5.68-4.12-3.21-9.2-4.95-14.42-4.94-2.38.17-4.75.53-7.08,1.07l-319.77,102.02h-.03c-1.03-.11-2.07-.17-3.11-.17-2.5,0-4.99.33-7.4.98-17.68,4.8-27.55,25.29-22.48,46.66,4.35,18.28,18.37,31.05,34.1,31.05,2.5,0,5-.34,7.42-.99,4.67-1.29,8.94-3.72,12.44-7.06.05-.04.1-.07.14-.11l151.13-55.08,105.68-38.51,58.23-21.22c2.96-1.04,5.66-2.61,8.01-4.6,2.35-2,4.33-4.42,5.83-7.17,3.01-5.5,3.86-11.92,2.41-18.01ZM112.02,407.29c-.27.07-.54.1-.81.16-.46.1-.91.2-1.36.27-.69.09-1.38.13-2.07.13-3.65-.06-7.21-1.2-10.22-3.27-.23-.16-.46-.31-.68-.47-.17-.12-.34-.26-.51-.39-2.71-2.27-5.03-4.95-6.87-7.92-1.83-2.98-3.2-6.25-4.01-9.69-3.5-14.74,2.7-29.14,13.86-32.17,1.38-.38,2.8-.57,4.22-.57,9.79.01,19.25,8.88,22.31,21.75,3.51,14.74-2.7,29.14-13.86,32.17Zm63.14-49.68c-.43,2.12-1.96,3.85-4.01,4.53l-33.31,11.1c-.06-.31-.1-.61-.18-.92-.86-3.64-2.16-7.16-3.85-10.49l33.51-11.17c2.05-.69,4.31-.23,5.93,1.21,1.62,1.44,2.35,3.62,1.91,5.74Z"/>
  </g>
  <path class="cls-1" d="m374.25,160.48v6.44c-.01,7.94-1.31,15.77-3.79,23.21s-6.15,14.49-10.9,20.85l-1.56,2.08h-.01c-.88,1.17-1.32,2.62-1.23,4.09l1.78,29.47-35.7,11.38-133.45,42.58s-81.69,23.98-83.32,24.27l6.53-107.7c.11-1.77-.55-3.5-1.8-4.75-6.84-6.8-12.27-14.89-15.96-23.81-3.66-8.84-5.55-18.32-5.55-27.88v-.23c0-1.75.14-3.46.26-5.18,0-.77.12-1.6.12-2.38,1.89-17.58,10.2-33.83,23.35-45.65,13.14-11.82,30.18-18.37,47.86-18.39h141.74c18.99.02,37.19,7.56,50.62,20.99,13.43,13.42,20.99,31.62,21.01,50.61Z"/>
</svg>