<?xml version="1.0" encoding="UTF-8"?><svg id="Layer_1" xmlns="http://www.w3.org/2000/svg" viewBox="0 0 512 512"><defs><style>.cls-1{fill:#fff;stroke:#fff;stroke-miterlimit:10;stroke-width:10px;}</style></defs><path class="cls-1" d="M120.88,323.53c-30.89,0-56.02-25.14-56.02-56.04,0-3.51,2.84-6.35,6.35-6.35s6.35,2.84,6.35,6.35c0,23.89,19.44,43.33,43.32,43.33s43.32-19.44,43.32-43.33c0-3.51,2.84-6.35,6.35-6.35s6.35,2.84,6.35,6.35c0,30.9-25.13,56.04-56.02,56.04h0Z"/><path class="cls-1" d="M258.35,323.53c-30.9,0-56.02-25.14-56.02-56.04,0-3.51,2.84-6.35,6.36-6.35s6.35,2.84,6.35,6.35c0,23.89,19.43,43.33,43.32,43.33s43.32-19.44,43.32-43.33c0-3.51,2.84-6.35,6.35-6.35s6.35,2.84,6.35,6.35c0,30.9-25.12,56.04-56.01,56.04h0Z"/><path class="cls-1" d="M391.12,323.53c-30.89,0-56.01-25.14-56.01-56.04,0-3.51,2.84-6.35,6.35-6.35s6.36,2.84,6.36,6.35c0,23.89,19.43,43.33,43.31,43.33s43.32-19.44,43.32-43.33c0-3.51,2.84-6.35,6.35-6.35s6.35,2.84,6.35,6.35c0,30.9-25.13,56.04-56.02,56.04h0Z"/><path class="cls-1" d="M373.34,250.84c-3.51,0-6.35-2.85-6.35-6.36,0-23.89-19.43-43.32-43.32-43.32s-43.32,19.43-43.32,43.32c0,3.51-2.85,6.36-6.35,6.36s-6.36-2.85-6.36-6.36c0-30.89,25.13-56.02,56.03-56.02s56.02,25.13,56.02,56.02c0,3.51-2.84,6.36-6.36,6.36h0Z"/><path class="cls-1" d="M237.16,250.84c-3.51,0-6.35-2.85-6.35-6.36,0-23.89-19.44-43.32-43.32-43.32s-43.32,19.43-43.32,43.32c0,3.51-2.84,6.36-6.35,6.36s-6.35-2.85-6.35-6.36c0-30.89,25.13-56.02,56.02-56.02s56.03,25.13,56.03,56.02c0,3.51-2.84,6.36-6.36,6.36h0Z"/></svg>