<?xml version="1.0" encoding="UTF-8"?><svg id="Layer_1" xmlns="http://www.w3.org/2000/svg" viewBox="0 0 512 512"><defs><style>.cls-1{fill:#fff;stroke:#fff;stroke-miterlimit:10;stroke-width:10px;}</style></defs><path class="cls-1" d="M256,432.84c-3.86,0-7.12-2.94-7.5-6.82C217.9,105.64,183.8,101.14,144.31,95.95c-3.6-.47-7.33-.97-11.17-1.65-4.1-.72-6.83-4.63-6.1-8.73,.72-4.1,4.63-6.83,8.73-6.1,3.56,.63,7.07,1.09,10.51,1.54,43.16,5.7,78.13,10.29,107.89,256.46,8.22-81.95,28.11-197.73,75.83-240.74,14.42-13,30.66-18.84,48.18-17.36,4.15,.35,7.22,3.99,6.88,8.14-.35,4.14-3.89,7.25-8.14,6.88-13.44-1.12-25.47,3.3-36.84,13.54-70.63,63.64-76.5,315-76.55,317.54-.08,3.99-3.26,7.22-7.25,7.37-.1,0-.19,0-.29,0h0Z"/></svg>