<?xml version="1.0" encoding="UTF-8"?><svg id="Layer_1" xmlns="http://www.w3.org/2000/svg" viewBox="0 0 512 512"><defs><style>.cls-1{fill:#fff;stroke:#fff;stroke-miterlimit:10;stroke-width:10px;}</style></defs><path class="cls-1" d="M391.77,303.51c0-31.91-25.96-57.88-57.88-57.88s-57.88,25.96-57.88,57.88,25.96,57.88,57.88,57.88c5.44,0,10.68-.81,15.67-2.21-23.26,25.71-60.22,44.7-98.18,48.28-28.16,2.66-80.3-1.31-113.29-57.67-2.15-3.68-6.89-4.91-10.56-2.76-3.68,2.16-4.91,6.88-2.76,10.56,24.83,42.41,65.76,65.93,113.77,65.93,4.69,0,9.46-.23,14.29-.68,59.16-5.58,114.25-43.69,131.34-90.73,4.82-8.45,7.61-18.18,7.61-28.58h0Zm-100.33,0c0-23.4,19.05-42.45,42.45-42.45s42.45,19.04,42.45,42.45-19.04,42.45-42.45,42.45c-23.4,0-42.45-19.04-42.45-42.45Z"/><path class="cls-1" d="M178.11,266.37c31.92,0,57.88-25.96,57.88-57.88s-25.96-57.88-57.88-57.88c-5.44,0-10.67,.81-15.67,2.21,23.26-25.7,60.21-44.7,98.17-48.27,28.13-2.66,80.31,1.31,113.3,57.68,2.16,3.67,6.88,4.91,10.56,2.76,3.67-2.15,4.91-6.88,2.76-10.56-27.26-46.57-73.91-70.35-128.07-65.25-59.16,5.58-114.25,43.69-131.32,90.73-4.82,8.44-7.61,18.18-7.61,28.58,0,31.91,25.96,57.88,57.88,57.88h0Zm42.45-57.88c0,23.4-19.05,42.45-42.45,42.45s-42.44-19.04-42.44-42.45,19.04-42.45,42.44-42.45c23.41,0,42.45,19.05,42.45,42.45Z"/></svg>