<?xml version="1.0" encoding="UTF-8"?><svg id="Layer_1" xmlns="http://www.w3.org/2000/svg" viewBox="0 0 512 512"><defs><style>.cls-1{fill:#fff;}</style></defs><path class="cls-1" d="M339.9,263.04c-6.31-9-22.94-14.21-40.45-14.22,1.48-21.49,2.55-42.89-.56-58.12-5.27-25.92-23.52-42.4-49.88-45.2-23.84-2.54-49.68,6.86-63.84,22.59v-44.14c0-3.07-2.6-5.56-5.67-5.56s-5.67,2.49-5.67,5.56v217.61c0,3.07,2.6,5.56,5.67,5.56s5.67-2.48,5.67-5.56V187.19c8.5-19.66,37.16-33.34,62.67-30.64,12.47,1.33,34.31,7.81,40.11,36.37,2.89,14.18,1.76,35.37,.27,56.61-5.16,.67-10.2,1.82-14.93,3.48-20.04,7.08-30.35,21.85-29.03,41.59,.24,3.61,.69,7.6,1.17,11.83,2.15,19.12,4.83,42.92-9.22,58.36-11.16,12.26-32.25,18.15-62.33,17.67-3.03-.17-5.6,2.39-5.65,5.46-.06,3.07,2.39,5.6,5.46,5.65,1.35,.02,2.67,.03,3.99,.03,31.84,0,53.71-7,66.75-21.33,17.43-19.15,14.32-46.85,12.04-67.08-.46-4.06-.89-7.88-1.12-11.33-.99-14.73,6.3-24.94,21.65-30.37,3.38-1.2,6.9-2.06,10.44-2.63-1.39,19.7-2.47,38.08-.44,51.43,2.24,14.84,16.36,26.9,30.68,26.36,4.82-.18,20.69-2.65,22.49-26.77,.13-1.71,.55-4.34,1.03-7.49,2.65-17.03,4.53-33-1.33-41.34h0Zm-9.65,39.63c-.55,3.52-.99,6.45-1.14,8.37-.45,6.01-2.59,16.15-11.83,16.5-7.97,.31-17.76-6.88-19.28-16.92-1.9-12.56-.73-30.98,.66-50.69,.16,0,.3,0,.45,0,14.83,0,28.07,4.33,31.7,9.5,3.78,5.37,.85,24.2-.56,33.25h0Z"/></svg>