<?xml version="1.0" encoding="UTF-8"?><svg id="Layer_1" xmlns="http://www.w3.org/2000/svg" viewBox="0 0 512 512"><defs><style>.cls-1{fill:#fff;}</style></defs><path class="cls-1" d="M394.95,331.41c-2.4-3.48-7.17-4.33-10.64-1.94-29.37,20.28-52.59,26.3-63.77,16.48-15.94-14.04-13.84-66.38,28.46-148.14,18.71-36.18,11.54-70.82-19.67-95.04-44.32-34.4-129.81-40.82-177.89,2.06-26.62,23.73-60.01,81.08,9.56,200.33-26.36,9.38-45.31,34.51-45.31,64.04,0,37.5,30.52,68.01,68.02,68.01s68.01-30.52,68.01-68.01-30.51-68.01-68.01-68.01c-2.39,0-4.74,.13-7.07,.37-49.88-83.66-55.3-149.4-15.03-185.31,41.96-37.41,119.57-31.48,158.34-1.39,17.82,13.82,34.97,38.23,15.46,75.93-41.35,79.95-50.93,143.8-24.97,166.64,5.34,4.71,13.05,8.5,23.99,8.5,13.8,0,32.74-6.03,58.58-23.87,3.47-2.41,4.34-7.16,1.95-10.65h0Zm-158.51,37.78c0,29.07-23.65,52.72-52.72,52.72s-52.73-23.65-52.73-52.72,23.66-52.72,52.73-52.72c29.07,0,52.72,23.64,52.72,52.72Z"/></svg>