<?xml version="1.0" encoding="UTF-8"?><svg id="Layer_1" xmlns="http://www.w3.org/2000/svg" viewBox="0 0 512 512"><defs><style>.cls-1{fill:#fff;stroke:#fff;stroke-miterlimit:10;stroke-width:10px;}</style></defs><path class="cls-1" d="M418.35,348.44H93.65c-3.61,0-6.53-2.92-6.53-6.53s2.93-6.53,6.53-6.53H418.35c3.62,0,6.54,2.92,6.54,6.53,0,3.61-2.92,6.53-6.53,6.53h0Z"/><path class="cls-1" d="M418.35,272.19h-54.62c-3.09,0-5.75-2.16-6.39-5.17-15.34-72.19-67.75-93.84-111.65-89.99-44.51,3.88-92.82,36.34-94.68,88.86-.12,3.52-3.01,6.3-6.53,6.3h-50.83c-3.61,0-6.53-2.92-6.53-6.53s2.93-6.53,6.53-6.53h44.73c5.56-56.31,57.87-90.91,106.18-95.12,46.22-4.04,105.79,18.66,124.4,95.11h49.41c3.62,0,6.54,2.92,6.54,6.53s-2.92,6.54-6.54,6.54h0Z"/></svg>