<?xml version="1.0" encoding="UTF-8"?><svg id="Layer_1" xmlns="http://www.w3.org/2000/svg" viewBox="0 0 512 512"><defs><style>.cls-1{fill:#fff;stroke:#fff;stroke-miterlimit:10;stroke-width:10px;}</style></defs><path class="cls-1" d="M363.03,378.24c-58.52-25.2-69.68-71.9-69.28-116.37h34.76c3.61,0,6.53-1.95,6.53-5.56s-2.92-5.56-6.53-5.56h-34.16c.78-8.34,2.14-16.87,3.26-22.25,10.43-50.13,39.15-91.7,62.75-91.7h.1c3.59,0,6.52-4.72,6.53-8.31,.01-3.61-2.9-8.36-6.51-8.36h-.11c-30.37,0-63.54,46.22-75.54,103.91-1.82,8.75-3.01,18.38-3.73,26.71h-50.17c-.72-8.34-1.9-17.96-3.73-26.72-12-57.69-45.16-103.9-75.54-103.9h-.11c-3.61,0-6.52,4.75-6.51,8.36,.01,3.6,2.94,8.31,6.53,8.31h.1c23.59,0,52.31,41.58,62.75,91.69,1.12,5.38,2.48,13.92,3.25,22.25h-38.79c-3.61,0-6.54,1.95-6.54,5.56s2.92,5.56,6.54,5.56h39.39c.4,44.47-10.77,91.17-69.28,116.37-3.31,1.42-4.84,6.01-3.42,9.32,1.06,2.47,3.47,4.32,6,4.32,.87,0,1.74-1.47,2.58-1.83,51.04-21.98,78.46-64.25,77.44-128.17h48.84c-1.02,63.92,26.4,106.37,77.44,128.36,.84,.36,1.72,1.28,2.59,1.28,2.52,0,4.94-1.85,5.99-4.32,1.43-3.31-.1-7.53-3.41-8.94h0Z"/></svg>