<?xml version="1.0" encoding="UTF-8"?><svg id="Layer_1" xmlns="http://www.w3.org/2000/svg" viewBox="0 0 512 512"><defs><style>.cls-1{fill:#fff;}</style></defs><path class="cls-1" d="M358.75,136.8v-.05c0-.53-.04-1.04-.17-1.53-.03-.12-.04-.23-.08-.34-.17-.51-.38-1-.69-1.43,0-.01,0-.03-.01-.04-.19-.27-.39-.51-.61-.73-.06-.05-.12-.1-.17-.15-.19-.18-.39-.35-.6-.5-.11-.08-.23-.14-.34-.21-.17-.11-.35-.21-.54-.29-.13-.06-.27-.12-.41-.18-.2-.08-.41-.14-.61-.19-.12-.03-.25-.07-.37-.1-.33-.06-.67-.1-1.01-.1-.02,0-.05,0-.07,0-.08,0-.16,.02-.23,.02-.26,.01-.51,.03-.76,.08-.13,.02-.26,.05-.38,.08-.1,.02-.2,.03-.3,.06l-77.99,23.56c-3.07,.93-4.81,4.17-3.88,7.24,.92,3.08,4.15,4.81,7.24,3.88l61.29-18.51-96.72,131.36c-27.72-14.22-65.63-13.61-86.96,15.77-1.88,2.6-1.3,6.23,1.29,8.12,2.6,1.89,6.23,1.3,8.12-1.29,17.02-23.48,47.49-24.21,70.57-13.12l-58.94,80.05c-1.9,2.58-1.35,6.22,1.24,8.12,1.04,.76,2.24,1.13,3.44,1.13,1.79,0,3.55-.82,4.69-2.36l59.64-81c20.46,14.56,36.24,42.85,17.06,78.36-1.53,2.82-.47,6.35,2.35,7.87,.88,.48,1.83,.7,2.75,.7,2.07,0,4.07-1.11,5.12-3.05,21.39-39.61,6.08-74.65-19.92-93.23l96.45-130.34v61.64c0,3.21,2.05,5.81,5.27,5.81s5.27-2.6,5.27-5.81v-79.27h0s0,0,0,0Z"/></svg>