<?xml version="1.0" encoding="UTF-8"?><svg id="Layer_1" xmlns="http://www.w3.org/2000/svg" viewBox="0 0 512 512"><defs><style>.cls-1{fill:#fff;}</style></defs><path class="cls-1" d="M114.5,399.13c-3.66,0-6.63-2.96-6.63-6.62V119.49c0-3.66,2.96-6.63,6.63-6.63s6.62,2.96,6.62,6.63V392.51c0,3.66-2.97,6.62-6.62,6.62Z"/><path class="cls-1" d="M186.03,170.72c-2.52,0-4.92-1.44-6.03-3.88-7-15.36-15.08-23.61-24-24.51-13.51-1.42-27.85,14.17-32.28,20.26-2.15,2.95-6.29,3.62-9.25,1.47-2.96-2.14-3.62-6.27-1.48-9.24,.82-1.15,20.47-28.08,44.3-25.69,13.96,1.39,25.66,12.22,34.77,32.21,1.52,3.33,.05,7.26-3.28,8.77-.89,.41-1.83,.6-2.74,.6h0Z"/><path class="cls-1" d="M258.55,170.72c-2.52,0-4.92-1.44-6.03-3.88-7-15.36-15.08-23.61-24-24.51-13.51-1.42-27.85,14.17-32.28,20.26-2.15,2.95-6.29,3.62-9.25,1.47-2.96-2.14-3.62-6.27-1.49-9.24,.83-1.15,20.52-28.08,44.3-25.69,13.97,1.39,25.66,12.22,34.77,32.21,1.51,3.33,.05,7.26-3.28,8.77-.89,.41-1.82,.6-2.74,.6h0Z"/><path class="cls-1" d="M186.02,306.84c-3.66,0-6.62-2.96-6.62-6.62V167.94c0-3.66,2.96-6.62,6.62-6.62s6.63,2.96,6.63,6.62v132.28c0,3.66-2.97,6.62-6.63,6.62Z"/><path class="cls-1" d="M308.85,398.67c-1.4,0-2.78-.06-4.15-.17-25.38-2.06-52.78-22.88-52.78-52.91V167.94c0-3.66,2.96-6.62,6.62-6.62s6.62,2.96,6.62,6.62v177.65c0,21.78,21,38.12,40.6,39.71,21.62,1.69,36.66-12.91,41.28-40.25v-83.28c0-3.66,2.96-6.62,6.63-6.62s6.62,2.96,6.62,6.62v83.82c0,.35-.03,.71-.08,1.06-6.29,38.5-29.93,52.01-51.36,52.01h0Z"/><path class="cls-1" d="M306.11,306.84c-1.77,0-3.54-.71-4.85-2.12-2.49-2.68-2.34-6.87,.34-9.36l47.56-44.22c2.63-2.43,6.7-2.34,9.21,.19l43.83,44.22c2.57,2.6,2.56,6.79-.04,9.37-2.6,2.58-6.79,2.56-9.37-.04l-39.31-39.66-42.87,39.85c-1.27,1.18-2.89,1.77-4.51,1.77h0Z"/></svg>