<?xml version="1.0" encoding="UTF-8"?><svg id="Layer_1" xmlns="http://www.w3.org/2000/svg" viewBox="0 0 512 512"><defs><style>.cls-1{fill:#fff;stroke:#fff;stroke-miterlimit:10;stroke-width:10px;}</style></defs><path class="cls-1" d="M277.7,197.4c51.14-8.98,89.82-49.04,89.82-96.97,0-3.72-3.01-6.73-6.73-6.73-3.72,0-6.73,3.01-6.73,6.73,0,47.09-43.99,85.39-98.05,85.39s-98.05-38.31-98.05-85.39c0-3.72-3.01-6.73-6.73-6.73s-6.73,3.01-6.73,6.73c0,47.93,38.68,87.99,89.83,96.97-51.14,10.13-89.83,55.32-89.83,109.39,0,61.5,50.03,111.52,111.52,111.52s111.52-50.03,111.52-111.52c0-54.07-38.68-99.26-89.82-109.39h0Zm-21.69,207.44c-54.06,0-98.05-43.99-98.05-98.05s43.99-98.05,98.05-98.05,98.05,43.99,98.05,98.05-43.99,98.05-98.05,98.05h0Z"/></svg>