<?xml version="1.0" encoding="UTF-8"?><svg id="Layer_1" xmlns="http://www.w3.org/2000/svg" viewBox="0 0 512 512"><defs><style>.cls-1{fill:#fff;}</style></defs><path class="cls-1" d="M151.98,405.1c-3.55,0-6.42-2.87-6.42-6.42V113.32c0-3.55,2.87-6.42,6.42-6.42s6.42,2.87,6.42,6.42V398.68c0,3.55-2.87,6.42-6.42,6.42Z"/><path class="cls-1" d="M228.04,170.24c-2.5,0-4.88-1.48-5.92-3.93-5.56-13.19-14.77-29.08-27.06-29.85-15.86-.88-32.41,21.73-37.52,30.56-1.78,3.07-5.7,4.12-8.77,2.35-3.07-1.77-4.12-5.71-2.35-8.78,.91-1.58,22.67-38.58,49.44-36.96,15.13,.95,27.95,13.63,38.09,37.67,1.38,3.27-.15,7.04-3.42,8.41-.82,.35-1.66,.51-2.5,.51h0Z"/><path class="cls-1" d="M228.04,305.94c-3.55,0-6.42-2.87-6.42-6.42V167.54c0-3.55,2.87-6.42,6.42-6.42s6.42,2.88,6.42,6.42v131.97c0,3.55-2.87,6.42-6.42,6.42h0Z"/><path class="cls-1" d="M304.09,239.95c-3.55,0-6.42-2.88-6.42-6.42v-68.4c-5.61-12.94-14.63-27.92-26.55-28.67-15.86-.88-32.41,21.73-37.52,30.56-1.78,3.07-5.7,4.12-8.78,2.35-3.07-1.77-4.12-5.71-2.34-8.78,.91-1.58,22.73-38.55,49.44-36.96,15.13,.95,27.95,13.63,38.09,37.67,.33,.79,.5,1.64,.5,2.49v69.72c0,3.55-2.87,6.43-6.43,6.43h0Z"/><path class="cls-1" d="M243.69,396.17c-2.77,0-5.32-1.8-6.15-4.59-1.01-3.4,.93-6.98,4.33-7.98,.46-.14,31.74-9.64,55.49-30.11-13.25-14.32-21.17-29.61-23.66-45.78-6.29-40.84,24.62-71.18,25.93-72.45,1.31-1.27,3.09-1.92,4.92-1.78,1.82,.13,3.49,1.03,4.61,2.47,24.62,31.64,32.72,61.29,24.08,88.12-3.62,11.27-9.9,21.07-17.49,29.48,12.1,10.7,27.82,20.87,47.12,30.46,3.17,1.58,4.47,5.44,2.89,8.61-1.58,3.18-5.42,4.48-8.61,2.9-20.59-10.24-37.46-21.25-50.55-32.96-25.77,22.69-59.08,32.77-61.09,33.37-.61,.18-1.22,.26-1.83,.26h0Zm59.98-146.1c-7.65,9.63-21.18,30.75-17.27,55.78,2.1,13.48,8.83,26.39,20.12,38.67,6.35-7.11,11.55-15.25,14.5-24.45,6.7-20.85,.86-44.37-17.35-70.01h0Z"/></svg>