<?xml version="1.0" encoding="UTF-8"?>
<svg id="Layer_2" data-name="Layer 2" xmlns="http://www.w3.org/2000/svg" viewBox="0 0 1043.1 101.58">
  <defs>
    <style>
      .cls-1 {
        fill: #fff;
      }
    </style>
  </defs>
  <g id="Layer_1-2" data-name="Layer 1">
    <g>
      <path class="cls-1" d="m50.08,101.5c-13.81-.04-25.6-4.9-35.37-14.59C4.9,77.11,0,65.3,0,51.49S4.9,25.89,14.71,16C24.56,6.15,36.35,1.23,50.08,1.23l-.06.25c15.26,0,27.39,6.78,35.55,14.65l-14.16,14.16c-5.97-5.88-13.06-8.83-21.27-8.83s-15.41,2.94-21.21,8.83c-5.88,5.97-8.83,13.06-8.83,21.27s2.94,15.38,8.83,21.27c5.84,5.84,12.91,8.77,21.21,8.77s15.45-2.94,21.33-8.83l14.16,14.16c-8.11,8.04-20.14,14.59-35.55,14.59Z"/>
      <path class="cls-1" d="m153.79,1.78v19.8h-39.72v19.92h29.79v19.8h-29.79v19.92h39.72v19.74h-59.58V1.78h59.58Z"/>
      <path class="cls-1" d="m162.37,2.02h32.24c11,0,19.9,4.15,25.87,10.05,6.02,6.02,9.56,11.5,9.56,22.43v2.57c0,6.66-2.08,12.93-6.25,18.82-3.47,4.86-6.22,6.92-11.83,9.13l22.99,35.8h-24.27l-28.38-43.7v43.7h-19.86l-.06-98.81Zm47.2,33.1c0-3.6-1.31-6.76-3.92-9.5-2.58-2.51-7.47-3.92-12.26-3.92h-11.16v27.28h7.66v.06h6.62c7.24,0,13.06-6.38,13.06-13.91Z"/>
      <path class="cls-1" d="m303.04,1.78v19.8h-39.72v19.92h29.79v19.8h-29.79v19.92h39.72v19.74h-59.58V1.78h59.58Z"/>
      <path class="cls-1" d="m352.99,0l45.11,100.83h-21.51l-6.68-15.02h-33.83l-6.68,15.02h-21.45L352.99,0Zm9.07,68.28l-9.01-20.9-9.13,20.9h18.14Z"/>
      <path class="cls-1" d="m426.54,2.02v79.07h39.72v19.74h-59.58V2.02h19.86Z"/>
      <path class="cls-1" d="m577.45,2.02l-38,79.07h38v19.74h-69.51l38-79.13h-38V2.02h69.51Z"/>
      <path class="cls-1" d="m667.92,16c9.85,9.85,14.77,21.68,14.77,35.49s-4.92,25.66-14.77,35.43c-9.81,9.73-21.62,14.59-35.43,14.59-13.85-.04-25.66-4.9-35.43-14.59-9.81-9.81-14.71-21.62-14.71-35.43s4.9-25.6,14.71-35.49c9.85-9.85,21.66-14.77,35.43-14.77s25.58,4.92,35.43,14.77Zm-56.7,14.1c-5.88,5.97-8.83,13.06-8.83,21.27s2.94,15.38,8.83,21.27c5.84,5.84,12.93,8.76,21.27,8.76s15.28-2.92,21.21-8.76c5.92-5.84,8.89-12.93,8.89-21.27s-2.96-15.34-8.89-21.27c-5.88-5.88-12.95-8.83-21.21-8.83s-15.47,2.94-21.27,8.83Z"/>
      <path class="cls-1" d="m717.44,2.02c15.52,0,27.67,6.17,36.1,14.53,8.83,8.87,13.24,20.52,13.24,34.97s-4.41,26.06-13.24,34.85c-9.73,9.64-21.76,14.47-36.1,14.47h-26.29V2.08h26.29v-.06Zm-.06,19.68h-6.44v59.33h6.62c17.81,0,29.42-11.83,29.42-29.67s-11.81-29.67-29.61-29.67Z"/>
      <path class="cls-1" d="m775.37,2.02h19.86v98.81h-19.86V2.02Z"/>
      <path class="cls-1" d="m848.86,0l45.11,100.83h-21.51l-6.68-15.02h-33.83l-6.68,15.02h-21.45L848.86,0Zm9.07,68.28l-9.01-20.9-9.13,20.9h18.14Z"/>
      <path class="cls-1" d="m939.69,101.5c-13.81-.04-25.6-4.9-35.37-14.59-9.81-9.81-14.71-21.62-14.71-35.43s4.9-25.6,14.71-35.49c9.85-9.85,21.64-14.77,35.37-14.77l-.06.25c15.26,0,27.39,6.78,35.55,14.65l-14.16,14.16c-5.97-5.88-13.06-8.83-21.27-8.83s-15.41,2.94-21.21,8.83c-5.88,5.97-8.83,13.06-8.83,21.27s2.94,15.38,8.83,21.27c5.84,5.84,12.91,8.77,21.21,8.77s15.45-2.94,21.33-8.83l14.16,14.16c-8.11,8.04-20.14,14.59-35.55,14.59Z"/>
      <path class="cls-1" d="m1011.36,81.38c5.48,0,11.54-4.55,11.54-10.04,0-9.02-12.11-10.28-18.94-12.65-12.05-4.11-22.69-14-22.69-27.45,0-16.66,13.52-30.09,30.18-30.09,15.19,0,27.78,11.27,29.82,25.92l-19.72,4.17c0-5.42-4.55-9.98-9.98-9.98s-10.07,4.56-10.07,10.04c0,8.9,11.27,11.27,18.13,13.31,12.47,3.6,23.47,13.1,23.47,26.85,0,16.66-14.95,30.12-31.59,30.12-15.28,0-29.1-11.21-31.35-25.92l19.72-4.2c0,5.51,5.99,10.01,11.57,10.01l-.09-.09Z"/>
    </g>
  </g>
</svg>